<?xml version="1.0" encoding="UTF-8"?> <!-- Generator: Adobe Illustrator 17.0.0, SVG Export Plug-In . SVG Version: 6.00 Build 0) --> <svg xmlns="http://www.w3.org/2000/svg" xmlns:xlink="http://www.w3.org/1999/xlink" id="Layer_1" x="0px" y="0px" width="1565.855px" height="433.188px" viewBox="0 0 1565.855 433.188" xml:space="preserve"> <g transform="matrix(.215948 0 0 .215948 2.339411 32.398966)"> <path fill="#326CE5" d="M1015.794-149.917c-18.492,1.095-36.576,5.892-53.18,14.106L243.209,207.528 c-37.591,17.899-64.963,51.97-74.339,92.535L-7.313,1070.814c-8.4,36.121-1.619,74.106,18.761,105.089 c2.445,3.762,5.031,7.382,7.758,10.862l497.659,618.406c26.249,32.227,65.641,50.887,107.205,50.781h797.834 c41.734,0.087,81.26-18.742,107.488-51.205l497.236-618.688c26.076-32.356,35.852-74.893,26.519-115.387l-177.453-771.597 c-9.376-40.565-36.747-74.637-74.339-92.535l-718.841-342.352C1061.799-146.006,1038.862-150.855,1015.794-149.917z"></path> <path fill="#FFFFFF" stroke="#FFFFFF" stroke-width="0.25" d="M1022.988,112.454c-24.785,1.736-43.609,23.008-42.318,47.819v12.131 c1.187,13.738,3.165,27.397,5.924,40.907c3.95,25.849,5.367,52.022,4.232,78.147c-2.477,8.624-7.372,16.358-14.106,22.287 l-0.987,18.338c-26.157,2.17-52.129,6.176-77.724,11.99C790.341,368.337,692.387,424.24,616.735,504.6l-15.517-11.003 c-8.516,2.521-17.68,1.61-25.532-2.539c-20.979-15.52-40.396-33.047-57.976-52.333c-8.82-10.548-18.239-20.58-28.212-30.046 l-9.592-7.617c-8.509-6.856-18.988-10.81-29.905-11.285c-13.201-0.675-25.932,4.984-34.278,15.234 c-14.573,20.458-9.841,48.851,10.579,63.477l8.887,7.053c11.485,7.64,23.4,14.61,35.688,20.877 c22.89,12.721,44.481,27.65,64.464,44.575c5.13,7.31,8.111,15.91,8.605,24.827l14.106,12.272 c-76.088,114.164-107.334,252.407-87.739,388.197l-18.056,5.219c-4.702,7.501-11.014,13.861-18.479,18.62 c-25.246,6.731-51.088,10.983-77.16,12.695c-13.828,0.287-27.627,1.37-41.331,3.244l-11.285,2.821h-1.411 c-23.631,3.145-40.238,24.851-37.093,48.481c1.239,9.311,5.481,17.963,12.083,24.644c11.514,11.653,28.633,15.784,44.194,10.664 h0.846l11.708-1.411c13.142-3.96,26.047-8.67,38.65-14.106c24.24-9.756,49.374-17.126,75.044-22.005 c8.885,0.547,17.438,3.577,24.685,8.746l18.761-3.244c41.986,130.3,130.257,240.702,248.124,310.332l-7.899,16.504 c3.64,7.533,4.965,15.976,3.809,24.262c-10.69,24.702-23.727,48.321-38.932,70.53c-8.365,11.019-16.09,22.511-23.134,34.419 l-5.642,11.567c-12.033,20.579-5.105,47.017,15.475,59.05c8.008,4.682,17.312,6.66,26.533,5.64 c16.217-1.794,30.036-12.579,35.716-27.873l5.36-11.003c4.894-12.916,9.039-26.103,12.413-39.497 c11.285-28.212,17.633-58.54,33.29-77.301c5.111-4.8,11.551-7.946,18.479-9.028l9.874-17.632 c127.741,49.122,269.1,49.474,397.083,0.987l8.464,16.504c8.787,1.371,16.687,6.131,22.005,13.26 c12.157,23.105,22.031,47.341,29.481,72.364c3.422,13.396,7.614,26.583,12.554,39.497l5.36,11.003 c8.3,22.347,33.145,33.735,55.492,25.435c8.697-3.23,16.122-9.176,21.174-16.957c8.885-13.685,9.294-31.21,1.058-45.294 l-5.642-11.567c-7.046-11.861-14.77-23.306-23.134-34.278c-14.883-21.466-27.639-44.332-38.086-68.273 c-2.08-8.842-0.503-18.15,4.373-25.814c-2.763-5.625-5.166-11.42-7.194-17.35c117.711-70.087,205.639-180.9,247.137-311.46 l18.338,3.244c6.567-6.005,15.228-9.196,24.121-8.887c25.67,4.88,50.803,12.25,75.044,22.005 c12.585,5.723,25.49,10.715,38.65,14.952c3.103,0.846,7.617,1.411,11.285,2.398h0.846c22.644,7.453,47.042-4.861,54.496-27.505 c2.939-8.928,2.883-18.572-0.159-27.466c-5.323-15.539-19.004-26.71-35.293-28.818l-12.695-2.821 c-13.703-1.875-27.503-2.958-41.33-3.244c-26.072-1.712-51.914-5.964-77.16-12.695c-7.813-4.36-14.26-10.807-18.62-18.62 l-17.35-5.078c18.594-135.685-13.281-273.474-89.573-387.209l15.234-14.106c-0.615-8.873,2.271-17.634,8.04-24.403 c19.831-17.049,41.28-32.12,64.041-44.998c12.286-6.269,24.202-13.239,35.688-20.877l9.451-7.617 c20.307-12.636,26.525-39.341,13.889-59.647c-5.223-8.394-13.16-14.748-22.494-18.006c-15.744-5.496-33.246-1.464-44.998,10.368 l-9.592,7.617c-9.97,9.468-19.39,19.5-28.212,30.046c-17.054,19.499-35.95,37.308-56.424,53.18 c-8.267,3.349-17.304,4.326-26.096,2.821l-16.363,11.708c-94.359-98.927-221.427-160.23-357.587-172.516 c0-5.642-0.846-16.081-0.987-19.184c-7.323-5.029-12.386-12.726-14.106-21.441c-0.888-26.101,0.765-52.226,4.937-78.006 c2.759-13.511,4.737-27.169,5.924-40.907v-12.272c1.291-24.812-17.533-46.084-42.318-47.819L1022.988,112.454z M969.103,446.202 l-12.695,225.696h-0.987c-0.898,20.937-18.599,37.182-39.536,36.284c-7.459-0.32-14.658-2.833-20.696-7.226L710.117,569.77 c58.922-57.873,132.842-98.131,213.423-116.233c15.1-3.222,30.354-5.67,45.703-7.335H969.103z M1076.872,446.202 c97.203,12.061,187.752,55.725,257.716,124.274l-183.378,130.339c-16.365,13.09-40.243,10.436-53.334-5.929 c-5.259-6.574-8.182-14.711-8.309-23.129L1076.872,446.202z M642.69,654.829l169.272,150.934v0.987 c15.779,13.791,17.391,37.762,3.6,53.542c-4.907,5.615-11.36,9.659-18.553,11.628v0.705l-217.232,62.489 c-10.77-97.869,11.366-196.538,62.913-280.427V654.829z M1402.015,654.829c51.421,83.669,74.152,181.825,64.747,279.581 l-217.514-62.631v-0.846c-20.213-5.533-32.113-26.404-26.58-46.617c1.969-7.192,6.013-13.645,11.628-18.553l167.861-150.37 L1402.015,654.829z M988.287,817.753h69.119l42.318,53.603l-15.517,67.144l-62.066,29.905L959.793,938.5l-14.67-67.286 L988.287,817.753z M1210.174,1001.131c2.905-0.338,5.84-0.338,8.746,0l224.003,37.804 c-32.975,93.09-96.069,172.517-179.287,225.696l-86.611-209.897c-8.215-19.364,0.823-41.721,20.187-49.936 c4.025-1.708,8.315-2.71,12.68-2.961L1210.174,1001.131z M833.968,1002.118c20.954,0.329,37.674,17.582,37.345,38.536 c-0.078,4.941-1.119,9.82-3.068,14.362v0.846l-86.188,207.64c-82.212-52.844-144.764-131.257-178.017-223.157l222.028-37.804 c2.486-0.243,4.99-0.243,7.476,0L833.968,1002.118z M1021.577,1093.243c14.389-0.433,27.801,7.255,34.701,19.889h0.846 l109.462,197.484c-14.362,4.818-28.957,8.914-43.729,12.272c-80.518,18.432-164.577,14.085-242.764-12.554l109.18-197.484 c6.66-11.596,18.932-18.831,32.303-19.043V1093.243z"></path> <path d="M2507.501,893.079l41.613-45.421c14.294-15.799,28.165-31.409,41.613-46.832l38.086-44.011 c11.849-13.918,22.052-26.049,30.61-36.393h161.937c-32.35,37.146-63.853,72.552-94.51,106.218 c-30.751,33.666-64.418,68.461-100.999,104.384c20.071,18.456,38.918,38.199,56.424,59.104 c19.466,22.852,38.274,46.362,56.424,70.53c18.15,24.168,34.889,48.619,50.217,73.351c15.234,24.45,28.024,46.738,38.368,66.862 h-156.576c-9.404-15.987-20.501-33.572-33.29-52.756c-12.789-19.278-25.955-38.18-39.497-56.706 c-14.106-18.808-28.87-37.287-44.293-55.437c-14.051-16.257-29.484-31.265-46.127-44.857v210.743h-136.264V513.91l136.264-22.005 V893.22L2507.501,893.079z M3301.668,1184.791c-29.452,8.055-59.365,14.32-89.573,18.761c-38.08,5.922-76.567,8.847-115.105,8.746 c-34.735,1.027-69.348-4.574-101.986-16.504c-25.119-9.535-47.332-25.429-64.465-46.126c-16.323-20.741-27.882-44.821-33.854-70.53 c-6.95-29.677-10.313-60.082-10.015-90.56V720.563h136.264v251.086c0,43.917,5.783,75.608,17.35,95.074 c11.567,19.466,33.196,29.199,64.887,29.199c9.404,0,19.748-0.47,31.033-1.411s21.018-2.022,29.199-3.244V720.281h136.264V1184.791 z M3876.909,960.788c0.483,35.469-5.246,70.749-16.927,104.243c-10.439,29.715-27.13,56.844-48.948,79.558 c-22.145,22.49-48.97,39.827-78.571,50.782c-33.972,12.37-69.928,18.394-106.077,17.774c-16.457,0-33.666-0.752-51.628-2.257 c-17.868-1.505-35.547-3.479-53.039-5.925c-17.397-2.445-33.996-5.36-49.794-8.746c-15.799-3.385-29.905-6.912-42.318-10.579 V513.769l136.264-22.005v239.802c15.301-6.714,31.222-11.911,47.537-15.517c17.426-3.764,35.211-5.609,53.039-5.501 c31.112-0.635,61.997,5.427,90.561,17.773c25.671,11.469,48.25,28.875,65.875,50.782c18.456,23.489,32.116,50.377,40.202,79.135 C3872.601,891.578,3877.257,926.117,3876.909,960.788z M3737.966,957.12c0-87.739-32.303-131.609-96.908-131.609 c-14.052,0.008-28.042,1.857-41.613,5.501c-11.802,2.956-23.079,7.714-33.431,14.106v247.278c6.583,1.222,15.046,2.304,25.39,3.244 c10.344,0.94,21.629,1.411,33.854,1.411c32.871,2.269,64.678-12.151,84.636-38.368c20.031-29.951,29.829-65.581,27.93-101.563 H3737.966z M3959.006,964.455c-0.819-38.254,5.842-76.3,19.608-112.001c11.691-29.843,29.246-57.039,51.628-79.981 c20.989-20.842,46.057-37.122,73.633-47.819c27.186-10.885,56.198-16.486,85.482-16.504c68.273,0,122.205,20.877,161.795,62.631 c39.497,41.754,59.245,103.162,59.245,184.224c0,7.899-0.282,16.598-0.846,26.096c-0.564,9.404-1.176,17.773-1.834,25.109h-308.92 c2.445,27.018,16.892,51.511,39.355,66.721c27.747,17.747,60.347,26.377,93.24,24.685c24.707,0.012,49.36-2.302,73.633-6.912 c20.22-3.443,39.996-9.121,58.963-16.927l18.338,110.591c-9.413,4.468-19.179,8.148-29.2,11.003 c-13.358,3.931-26.919,7.133-40.625,9.592c-15.047,2.821-31.034,5.172-47.96,7.053c-17.008,1.804-34.101,2.698-51.205,2.68 c-38.493,0.833-76.793-5.678-112.848-19.184c-30.051-11.503-57.21-29.464-79.558-52.615c-21.204-22.592-37.106-49.625-46.55-79.135 c-10.47-32.006-15.71-65.491-15.517-99.165L3959.006,964.455z M4278.93,912.263c-0.587-11.484-2.577-22.853-5.924-33.854 c-3.202-10.659-8.475-20.581-15.517-29.199c-7.302-8.754-16.329-15.909-26.52-21.018c-12.422-5.846-26.058-8.651-39.779-8.182 c-13.531-0.355-26.972,2.295-39.356,7.758c-10.479,4.846-19.808,11.867-27.366,20.595c-7.453,8.776-13.194,18.872-16.927,29.764 c-3.95,11.137-6.877,22.61-8.746,34.278h180.133L4278.93,912.263z M4805.365,841.028c-12.225-3.009-26.331-6.207-42.318-9.592 c-17.465-3.462-35.234-5.164-53.039-5.078c-10.24,0.118-20.463,0.872-30.61,2.257c-9.097,1.007-18.104,2.705-26.942,5.078v366.755 h-136.264V745.813c28.132-9.541,56.763-17.546,85.764-23.98c36.459-7.956,73.698-11.789,111.014-11.426 c7.335,0,16.175,0.47,26.52,1.411c10.344,0.94,20.689,2.163,31.033,3.668s20.689,3.385,31.033,5.642 c9.063,1.75,17.942,4.348,26.52,7.758L4805.365,841.028z M4901.286,736.926c29.455-8.043,59.366-14.308,89.573-18.761 c38.127-5.927,76.661-8.852,115.246-8.746c34.791-1.027,69.47,4.426,102.268,16.081c25.065,9.222,47.287,24.83,64.464,45.28 c16.266,20.353,27.827,44.054,33.854,69.401c6.975,29.338,10.338,59.419,10.015,89.573v271.681h-136.405V946.117 c0-43.917-5.783-74.95-17.35-93.099c-11.567-18.244-33.196-27.366-64.888-27.366c-9.404,0-19.749,0.47-31.034,1.411 c-11.285,0.94-21.018,2.022-29.199,3.244v370.987h-136.264V736.926L4901.286,736.926z M5416.859,964.455 c-0.815-38.254,5.845-76.299,19.608-112.001c11.691-29.843,29.246-57.039,51.628-79.981c20.826-20.774,45.695-37.05,73.069-47.819 c27.187-10.882,56.198-16.483,85.482-16.504c68.273,0,122.205,20.877,161.796,62.631c39.497,41.754,59.245,103.162,59.245,184.224 c0,7.899-0.33,16.598-0.988,26.096c-0.658,9.404-1.27,17.773-1.833,25.109h-308.921c2.445,27.018,16.892,51.511,39.355,66.721 c27.747,17.747,60.347,26.377,93.241,24.685c24.707,0.012,49.36-2.302,73.633-6.912c20.219-3.445,39.995-9.122,58.963-16.927 l18.337,110.591c-9.413,4.467-19.179,8.147-29.2,11.003c-13.357,3.932-26.919,7.134-40.625,9.592 c-15.047,2.821-31.033,5.172-47.96,7.053c-17.008,1.804-34.101,2.698-51.205,2.68c-38.493,0.833-76.792-5.678-112.848-19.184 c-30.051-11.503-57.21-29.464-79.558-52.615c-21.156-22.742-36.964-49.923-46.268-79.558 c-10.28-31.895-15.375-65.232-15.094-98.742L5416.859,964.455z M5736.783,912.263c-0.588-11.484-2.578-22.853-5.925-33.854 c-3.202-10.659-8.475-20.581-15.517-29.199c-7.301-8.754-16.329-15.909-26.52-21.018c-12.422-5.846-26.058-8.651-39.779-8.182 c-13.531-0.36-26.974,2.29-39.356,7.758c-10.479,4.846-19.808,11.867-27.366,20.595c-7.456,8.774-13.197,18.87-16.927,29.764 c-3.953,11.136-6.881,22.609-8.746,34.278h180.133L5736.783,912.263z M5968.826,600.521l136.264-22.005v141.06h163.629v112.848 H6105.09v169.272c-1.123,23.785,4.086,47.441,15.094,68.555c10.063,16.927,30.281,25.391,60.655,25.391 c15.184-0.041,30.335-1.41,45.28-4.091c14.434-2.469,28.603-6.294,42.318-11.426l19.184,106.077 c-17.833,7.142-36.175,12.942-54.873,17.35c-24.316,5.318-49.169,7.779-74.057,7.335c-31.437,0.968-62.764-4.158-92.253-15.093 c-22.776-8.932-42.917-23.491-58.54-42.318c-15.156-19.086-25.638-41.452-30.61-65.311c-6.029-27.803-8.962-56.188-8.746-84.636 V600.521H5968.826z M6341.224,964.455c-0.815-38.254,5.845-76.299,19.607-112.001c11.691-29.843,29.246-57.039,51.628-79.981 c20.991-20.839,46.059-37.118,73.633-47.819c27.187-10.882,56.198-16.483,85.482-16.504c68.273,0,122.205,20.877,161.796,62.631 c39.497,41.754,59.245,103.021,59.245,183.801c0,7.899-0.329,16.598-0.988,26.096c-0.658,9.404-1.269,17.774-1.833,25.109h-308.921 c2.478,27.043,16.979,51.54,39.497,66.721c27.747,17.747,60.347,26.378,93.24,24.686c24.707,0.012,49.36-2.303,73.633-6.912 c20.22-3.445,39.995-9.122,58.963-16.927l18.337,110.591c-9.413,4.467-19.179,8.147-29.199,11.003 c-13.358,3.932-26.92,7.134-40.625,9.592c-15.046,2.821-31.033,5.172-47.96,7.053c-17.008,1.804-34.101,2.698-51.205,2.68 c-38.493,0.833-76.792-5.678-112.848-19.184c-30.052-11.503-57.21-29.464-79.558-52.615 c-21.407-22.536-37.505-49.574-47.114-79.135c-10.232-31.903-15.28-65.24-14.953-98.742L6341.224,964.455z M6661.43,912.263 c-0.587-11.484-2.577-22.853-5.925-33.854c-3.202-10.659-8.475-20.581-15.517-29.199c-7.301-8.754-16.329-15.909-26.519-21.018 c-12.422-5.846-26.058-8.651-39.779-8.182c-13.531-0.36-26.973,2.29-39.355,7.758c-10.72,4.719-20.295,11.695-28.071,20.454 c-7.456,8.774-13.198,18.87-16.927,29.764c-3.953,11.136-6.881,22.609-8.746,34.278H6661.43z M7035.662,1103.399 c17.991,1.098,36.02-1.396,53.038-7.335c10.557-5.24,16.745-16.49,15.516-28.212c-1.205-12.331-8.894-23.083-20.171-28.212 c-19.538-11.185-40.024-20.626-61.22-28.212c-19.778-7.239-39.175-15.478-58.117-24.685c-16.292-7.794-31.243-18.126-44.293-30.61 c-12.233-12-21.84-26.41-28.212-42.318c-7.136-18.965-10.537-39.13-10.015-59.386c-1.605-41.679,17.118-81.544,50.217-106.923 c33.478-26.331,79.463-39.497,137.957-39.497c28.396-0.129,56.737,2.469,84.636,7.758c21.786,3.829,43.209,9.491,64.041,16.927 l-23.698,106.077c-16.946-5.617-34.179-10.326-51.627-14.106c-20.574-4.453-41.582-6.582-62.631-6.348 c-42.694,0-64.041,11.896-64.041,35.688c-0.041,4.832,0.87,9.625,2.68,14.106c2.5,5.004,6.3,9.243,11.002,12.272 c7.103,4.9,14.606,9.194,22.429,12.836c9.404,4.702,21.441,9.78,36.111,15.234c25.444,9.105,50.194,20.042,74.057,32.726 c17.181,9.008,32.764,20.779,46.127,34.842c10.901,11.877,19,26.049,23.698,41.472c4.86,17.203,7.188,35.023,6.912,52.897 c2.336,42.779-17.962,83.643-53.461,107.629c-35.735,24.262-86.141,36.487-151.216,36.676c-35.818,0.734-71.589-2.961-106.5-11.003 c-20.068-4.692-39.773-10.821-58.963-18.338l22.852-110.591c23.105,9.121,46.934,16.293,71.235,21.441 C6987.575,1101.088,7011.591,1103.499,7035.662,1103.399z"></path> </g> </svg> 