<?xml version="1.0" encoding="UTF-8"?> <!-- Generator: Adobe Illustrator 23.0.0, SVG Export Plug-In . SVG Version: 6.00 Build 0) --> <svg xmlns="http://www.w3.org/2000/svg" xmlns:xlink="http://www.w3.org/1999/xlink" id="Layer_1" x="0px" y="0px" viewBox="0 0 4856.2 1001.7" style="enable-background:new 0 0 4856.2 1001.7;" xml:space="preserve"> <style type="text/css"> .st0{fill:#2A2828;} .st1{fill:#BBE6FB;} .st2{fill:#FFFFFF;} .st3{fill:#373535;} .st4{fill:#1287B1;} .st5{fill:#373535;fill-opacity:0.35;} </style> <g> <g> <path class="st0" d="M1951,488.4c27.2,0,52,6.2,65.6,18.6c2.5,19.8-16.1,52-27.2,52c-13.6-5-26-7.4-42.1-7.4 c-64.4,0-96.6,66.9-96.6,132.5c0,40.9,13.6,65.6,47.1,65.6c34.7,0,69.3-23.5,89.2-40.9c5,3.7,11.1,14.9,11.1,27.2 c0,13.6-3.7,27.2-17.3,40.9c-22.3,22.3-60.7,42.1-116.4,42.1c-63.2,0-107.7-35.9-107.7-120.1C1759,587.5,1830.9,488.4,1951,488.4 L1951,488.4z M2159,746c34.7,0,97.8-60.7,115.2-177.1c1.2-7.4,1.2-8.7,2.5-16.1c-7.4-2.5-18.6-5-28.5-5c-26,0-53.2,7.4-76.8,40.9 c-24.8,34.7-35.9,78-35.9,112.7C2135.5,729.9,2144.1,746,2159,746L2159,746z M2045.1,713.8c0-42.1,13.6-113.9,66.9-167.2 c45.8-47.1,100.3-58.2,151.1-58.2c33.4,0,78,11.1,106.5,16.1c-7.4,31-23.5,148.6-32.2,216.7c-3.7,28.5-5,69.3-3.7,84.2 c-23.5,9.9-66.9,12.4-79.2,12.4c-6.2,0-7.4-28.5-6.2-57c1.2-8.7,2.5-22.3,2.5-28.5c-27.2,45.8-81.7,84.2-138.7,84.2 C2071.1,817.8,2045.1,783.1,2045.1,713.8L2045.1,713.8z M2545.3,488.4c28.5,0,57,11.1,69.3,23.5c-1.2,19.8-16.1,53.2-40.9,43.3 c-11.1-3.7-21.1-6.2-35.9-6.2c-18.6,0-35.9,8.7-35.9,26c0,13.6,9.9,23.5,57,57c33.4,24.8,47.1,47.1,47.1,78 c0,52-48.3,107.7-133.7,107.7c-34.7,0-65.6-13.6-74.3-27.2c-12.4-21.1-2.5-63.2,11.1-55.7c18.6,8.7,48.3,18.6,73.1,18.6 c23.5,0,38.4-11.1,38.4-24.8c0-12.4-11.1-22.3-53.2-53.2c-35.9-27.2-47.1-52-47.1-79.2C2420.3,536.7,2471,488.4,2545.3,488.4 L2545.3,488.4z M2789.3,488.4c28.5,0,57,11.1,69.3,23.5c-1.2,19.8-16.1,53.2-40.9,43.3c-11.1-3.7-21.1-6.2-35.9-6.2 c-18.6,0-35.9,8.7-35.9,26c0,13.6,9.9,23.5,57,57c33.4,24.8,47.1,47.1,47.1,78c0,52-48.3,107.7-133.7,107.7 c-34.7,0-64.4-13.6-74.3-27.2c-12.4-21.1-2.5-63.2,11.1-55.7c18.6,8.7,48.3,18.6,73.1,18.6c23.5,0,38.4-11.1,38.4-24.8 c0-12.4-11.1-22.3-53.2-53.2c-35.9-27.2-47.1-52-47.1-79.2C2664.2,536.7,2715,488.4,2789.3,488.4L2789.3,488.4z M3010.9,746 c34.7,0,97.8-60.7,115.2-177.1c1.2-7.4,1.2-8.7,2.5-16.1c-7.4-2.5-18.6-5-28.5-5c-26,0-53.2,7.4-76.8,40.9 c-24.8,34.7-35.9,78-35.9,112.7C2988.6,729.9,2996.1,746,3010.9,746L3010.9,746z M2897,713.8c0-42.1,13.6-113.9,66.9-167.2 c45.8-47.1,100.3-58.2,151.1-58.2c33.4,0,78,11.1,106.5,16.1c-7.4,31-23.5,148.6-32.2,216.7c-3.7,28.5-5,69.3-3.7,84.2 c-23.5,9.9-66.9,12.4-79.2,12.4c-6.2,0-7.4-28.5-6.2-57c1.2-8.7,2.5-22.3,2.5-28.5c-27.2,45.8-81.7,84.2-138.7,84.2 C2924.2,817.8,2897,783.1,2897,713.8L2897,713.8z M3381.1,580.1c32.2-52,74.3-91.6,133.7-91.6c50.8,0,66.9,47.1,57,112.7 c-5,31-13.6,75.5-18.6,116.4c-5,34.7-8.7,65.6-7.4,86.7c-18.6,8.7-71.8,12.4-84.2,12.4c-5,0-6.2-38.4,1.2-79.2 c6.2-33.4,17.3-95.3,23.5-131.3c3.7-21.1,2.5-45.8-17.3-45.8c-26,0-87.9,42.1-118.9,213c-2.5,13.6-7.4,22.3-16.1,27.2 c-11.1,6.2-33.4,12.4-79.2,12.4c8.7-43.3,22.3-131.3,32.2-196.9c8.7-59.4,12.4-97.8,11.1-112.7c12.4-3.7,75.5-17.3,81.7-17.3 c7.4,0,8.7,22.3,2.5,74.3c-1.2,5-1.2,12.4-2.5,17.3h1.2V580.1L3381.1,580.1z M3740.2,744.7c31,0,94.1-58.2,111.4-161 c1.2-6.2,2.5-16.1,3.7-22.3c-8.7-8.7-21.1-13.6-40.9-13.6c-71.8,0-102.8,85.4-102.8,147.4C3713,727.4,3724.1,744.7,3740.2,744.7 L3740.2,744.7z M3694.4,817.8c-45.8,0-73.1-40.9-73.1-109c0-113.9,71.8-219.2,191.9-219.2c21.1,0,40.9,6.2,52,12.4 c6.2-32.2,21.1-132.5,22.3-162.2c19.8-3.7,61.9-9.9,81.7-9.9c7.4,0,9.9,7.4,7.4,26c-17.3,106.5-47.1,309.6-53.2,354.1 c-3.7,38.4-5,75.5-3.7,96.6c-22.3,9.9-68.1,12.4-80.5,12.4c-5,0-7.4-32.2-6.2-61.9c1.2-8.7,2.5-22.3,2.5-24.8 C3797.2,789.3,3748.9,817.8,3694.4,817.8L3694.4,817.8z M4108,590c37.1-83,81.7-101.5,111.4-101.5c8.7,0,23.5,6.2,29.7,12.4 c2.5,23.5-16.1,69.3-32.2,87.9c-8.7-3.7-18.6-8.7-31-8.7c-23.5,0-71.8,37.1-101.5,198.1c-2.5,13.6-6.2,18.6-13.6,22.3 c-12.4,7.4-59.4,12.4-81.7,13.6c11.1-58.2,28.5-175.8,35.9-245.2c2.5-17.3,2.5-50.8,1.2-63.2c13.6-6.2,66.9-18.6,78-18.6 c6.2,0,11.1,38.4,1.2,101.5h2.5V590L4108,590z M4356.9,746c34.7,0,97.8-60.7,115.2-177.1c1.2-7.4,1.2-8.7,2.5-16.1 c-7.4-2.5-18.6-5-28.5-5c-26,0-53.2,7.4-76.8,40.9c-24.8,34.7-35.9,78-35.9,112.7C4334.6,729.9,4342,746,4356.9,746L4356.9,746z M4243,713.8c0-42.1,13.6-113.9,66.9-167.2c45.8-47.1,100.3-58.2,151.1-58.2c33.4,0,78,11.1,106.5,16.1 c-7.4,31-23.5,148.6-32.2,216.7c-3.7,28.5-5,69.3-3.7,84.2c-23.5,9.9-66.9,12.4-79.2,12.4c-6.2,0-7.4-28.5-6.2-57 c1.2-8.7,2.5-22.3,2.5-28.5c-27.2,45.8-81.7,84.2-138.7,84.2C4270.2,817.8,4243,783.1,4243,713.8z"></path> </g> </g> <g> <path class="st1" d="M1405.2,351.9c12.3,135.8-210.6,265.4-498,289c-287.5,23.6-529.7-67.6-542-203.4 c-12.3-135.8,210.6-265.4,498-289C1150.1,124.9,1393,215.4,1405.2,351.9"></path> <path class="st2" d="M871,164c-109.8-1.9-237.7,40.3-333.3,79.4c-9.7,27.3-15.5,56.4-15.5,86.8c0,161.2,151.8,292.1,339.1,292.1 s339.8-130.2,339.8-292.1c0-50.8-15.5-99.2-42-140.8C1082.9,178.2,977.6,165.8,871,164"></path> <path class="st2" d="M862,164c-60.7-3.7-165.4,26.7-252.6,57.1c-13.6,29.8-20.7,62.6-20.7,97.4c0,141.4,133.7,256.1,274.5,256.1 c140.2,0,264.2-114.7,274.5-256.1c3.2-45.9-12.9-89.3-36.2-126.5C1011.8,177,916.2,167.7,862,164"></path> <path class="st3" d="M706.3,300.4c7.8-16.1,18.7-23.6,29.7-36.6c-1.3-3.1-3.9-13.6-3.9-16.7c0-16.1,13.6-28.5,29.7-28.5 c3.9,0,7.8,0.6,11,1.9c49.7-36.6,115-52.1,180.9-37.8c5.8,1.2,11.6,3.1,17.4,4.3c-64.6-8.7-138.2,13.6-188,52.1 c1.3,3.7,5.8,13,5.8,17.4c0,16.1-11,19.8-27.1,19.8c-3.9,0-7.1-0.6-11-1.9c-11,14.3-25.2,42.2-31.7,59.5 c27.8,23.6,52.3,32.2,84.6,44c0-1.2,1.3-3.1,1.3-4.3c0-47.7,43.9-86.8,93.7-86.8c44.6,0,82,31,89.1,71.9 c22.6-13.6,43.9-24.2,60.1-44c-3.9-4.3-7.8-17.4-7.8-23.6c0-14.3,12.3-26,27.1-26c1.9,0,3.9,0,6.5,0.6 c8.4-16.7,14.9-34.1,18.7-52.1c-78.2-55.8-229.3-47.7-229.3-47.7s-120.2-6.2-201.5,32.2C667.5,234,683,270,706.3,300.4"></path> <path class="st3" d="M1079.7,278.7c5.8,5,8.4,8.7,11,13c7.1,12.4-7.1,24.2-22.6,24.2c-1.3,0-3.2,0-4.5-0.6 c-16.8,25.4-46.5,57.7-73,74.4c40.7,6.2,78.8,21.7,108.5,45.9c22-37.8,38.8-93,38.8-139.5c0-35.3-16.1-61.4-40.7-80.6 C1096.5,234.7,1085.5,261.3,1079.7,278.7 M751.5,519.3c13.6-36,46.5-63.3,78.2-87.4c-4.5-6.2-11.6-21.1-14.2-27.9 c-38.1-11.2-71.7-32.2-98.2-59.5c0,0.6-0.6,1.9-0.6,2.5c-5.2,21.1-5.8,42.8-3.2,63.3c18.1,3.1,32.3,18.6,32.3,37.2 c0,11.2-10.3,26.7-18.1,34.1C735.4,497.6,741.2,506.3,751.5,519.3"></path> <path class="st3" d="M748.9,549.1c-16.1-15.5-27.1-45.9-37.5-65.1c-1.9,0-3.9,0.6-5.8,0.6c-22,0-44.6-17.4-39.4-37.8 c2.6-11.2,11-18.6,23.9-24.8c-3.2-23.6-3.9-56.4,1.9-80.6c1.3-6.8,5.2-9.9,7.1-16.7c-23.9-33.5-39.4-78.1-39.4-122.2v-5 c-40.7,19.8-71.1,50.2-71.1,98.6c0,107.3,64.6,212.7,160.2,253.6L748.9,549.1 M984.7,400.9c-12.3,33.5-45.9,58.3-85.3,58.3 c-21.3,0-40.7-6.8-55.6-18.6c-31.7,23.6-60.7,65.1-74.9,101.7c6.5,6.8,11,12.4,18.7,18.6c22,5.6,53,0,76.9,0 c96.2,0,182.2-40.9,231.3-113.5C1062.2,425,1023.5,404,984.7,400.9"></path> <path class="st4" d="M703.7,312.8c7.8-16.1,16.8-30.4,27.8-44c-1.3-3.1-1.9-6.8-1.9-9.9c0-16.1,13.6-28.5,29.7-28.5 c3.9,0,7.8,0.6,11,1.9c49.7-36.6,115-52.1,180.9-37.8c5.8,1.2,11.6,3.1,17.4,4.3c-64.6-8.7-131.8,10.5-181.5,49 c1.3,3.7,2.6,7.4,2.6,11.2c0,16.1-13.6,28.5-29.7,28.5c-3.9,0-7.1-0.6-11-1.9c-11,14.3-20.7,30.4-27.1,47.7 c23.9,24.2,53,44,85.3,55.2v-4.3c0-47.7,40.7-86.8,90.4-86.8c44.6,0,82,31,89.1,71.9c22.6-13.6,42-31,58.8-51.5 c-3.9-4.3-6.5-9.9-6.5-16.1c0-14.3,12.3-26,27.1-26c1.9,0,3.9,0,6.5,0.6c8.4-16.7,14.9-34.1,18.7-52.1 c-78.2-55.8-229.3-47.7-229.3-47.7s-120.2-6.2-201.5,32.2C664.9,246.4,680.5,282.4,703.7,312.8"></path> <path class="st4" d="M1083.5,283c5.8,5,9,11.8,9,19.2c0,14.3-12.3,26-27.1,26c-1.3,0-3.2,0-4.5-0.6c-16.8,25.4-39.4,47.1-65.9,63.3 c38.8,5.6,75.6,21.7,105.9,45.9c22-37.8,34.9-81.9,34.9-128.4c0-35.3-16.1-61.4-40.7-80.6C1093.9,247.1,1090,265.7,1083.5,283 M755.4,527.4c13.6-36,36.8-67.6,68.5-91.8c-4.5-6.2-8.4-12.4-11-19.8c-38.1-11.2-71.7-32.2-98.2-59.5c0,0.6-0.6,1.9-0.6,2.5 c-5.2,21.1-5.8,42.8-3.2,63.3c18.1,3.1,32.3,18.6,32.3,37.2c0,11.2-5.2,21.1-12.9,27.9C736.7,501.3,745.7,515,755.4,527.4"></path> <path class="st4" d="M748.9,548.4c-16.1-15.5-29.7-32.9-40.1-52.1c-1.9,0-3.9,0.6-5.8,0.6c-22,0-39.4-16.7-39.4-37.8 c0-14.9,9-27.9,22-34.1c-3.2-23.6-1.9-47.1,3.9-71.3c1.3-6.8,3.9-13.6,5.8-20.5c-23.9-33.5-38.1-74.4-38.1-118.4v-5 c-40.7,19.8-71.1,50.2-71.1,98.6c0,107.3,66.5,199.7,162.1,240.6C748.9,549.1,748.9,549.1,748.9,548.4 M982.1,413.3 c-12.3,33.5-45.9,58.3-85.3,58.3c-21.3,0-40.7-6.8-55.6-18.6c-31.7,23.6-55.6,55.8-70.4,92.4c6.5,6.8,13.6,13,20.7,19.2 c22,5.6,45.2,8.7,69.1,8.7c96.2,0,181.5-47.7,230.6-120.3C1059,430.6,1020.9,416.4,982.1,413.3"></path> <path class="st2" d="M985.3,390.9l83.3-19.2l-84-4.3l68.5-49.6l-77.5,26.7l52.3-70.1l-73,46.5l25.2-81.9l-49.7,67.6l-1.3-85.6 l-32.9,76.3l-27.1-76.9l1.3,90.5l-47.2-81.2l25.8,86.2l-76.9-53.3l60.1,72.6l-95.6-33.5l74.9,53.3l-96.2,3.1l98.8,24.2l-98.8,20.5 l97.5,6.8l-82,50.2l84.6-29.1l-58.8,71.3l74.3-57.7l-26.5,95.5l57.5-78.1l-7.8,91.8l32.3-83.7l27.8,87.4l6.5-88.1l41.3,75 l-24.5-85.6l74.9,55.8L964,443l82.7,31l-63.3-59.5l84.6,6.2L985.3,390.9z"></path> <path class="st5" d="M95.8,544.1c259-248.7,465.7-325.6,653.7-360.3c24.5-4.3,29.7-57.1,29.7-57.1s3.2,38.4,20.7,43.4 c17.4,5,40.1-60.2,40.1-60.2s-20.7,58.3,0,62c20.7,3.1,59.4-57,59.4-57s-15.5,51.5-5.2,55.2c10.3,3.1,62.7-75,62.7-75 s-31,51.5-1.9,57c29.7,5,73-35.3,73-35.3s-33.6,36.6-18.7,42.2c64.6,21.7,116.3-58.3,116.3-58.3s-12.3,35.3-43.3,73.8 c67.8,16.7,118.2-81.2,118.2-81.2l-50.4,98c25.8,12.4,129.8-102.9,129.8-102.9s-53.6,89.9-85.3,108.5 c17.4,13.6,80.1-40.3,80.1-40.3s-50.4,60.2-31,63.3c27.8,21.7,130.5-111.6,130.5-111.6s-40.1,78.8-98.8,140.1 c49.1,24.2,171.8-127.7,171.8-127.7s-3.2,48.4-92.4,125.3c65.9-8.1,151.2-128.4,151.2-128.4s-31,89.9-105.9,153.8 c64.6-6.2,168.6-160,168.6-160s-40.1,106.7-121.4,168.7c90.4,19.2,220.9-110.4,220.9-110.4s-51,91.8-118.2,129.6 c74.9,27.3,177.6-86.2,177.6-86.2s-102.7,151.9-266.1,145.1c-53.6-2.5-215.8-156.3-563.3-143.9C438.2,230.3,341.3,417.6,95.8,544.1 "></path> <path class="st3" d="M106.2,525.5c259-248.7,465.7-325.6,653.7-360.3c24.5-4.3,29.7-57,29.7-57s3.2,38.4,20.7,43.4 c17.4,5,40.1-60.2,40.1-60.2s-20.7,58.3,0,62c20.7,3.1,59.4-57.1,59.4-57.1s-15.5,51.5-5.2,55.2c10.3,3.1,62.7-75,62.7-75 s-31,51.5-1.9,57c29.7,5,73-35.3,73-35.3s-33.6,36.6-18.7,42.2c64.6,21.7,116.3-58.3,116.3-58.3s-12.3,35.3-43.3,73.8 c67.8,16.7,118.2-81.2,118.2-81.2l-50.4,98C1186.2,186.3,1290.9,71,1290.9,71s-53.6,89.9-85.3,108.5c17.4,11.8,80.1-41.5,80.1-41.5 s-50.4,60.2-31,63.3c27.8,21.7,130.5-111.6,130.5-111.6s-40.7,78.8-99.5,140.1c49.1,23.6,172.5-128.4,172.5-128.4 s-3.2,48.4-92.4,125.3c65.9-8.1,151.2-128.4,151.2-128.4S1486,188.2,1411,252c64.6-6.2,168.6-160,168.6-160 s-40.1,106.7-121.4,168.7c90.4,19.2,220.9-110.4,220.9-110.4s-51,91.8-118.2,129.6c74.9,27.3,177.6-86.2,177.6-86.2 s-102.7,151.9-266.1,145.1c-53.6-2.5-215.8-156.3-563.3-143.9C449.2,211.7,351.7,398.4,106.2,525.5"></path> <path class="st5" d="M89.4,571.4c136.9,65.7,262.3-9.9,419.9,32.9c120.2,32.2,266.1,72.6,464.5,44.6 c198.3-27.3,367.6-110.4,448.9-258c25.2-65.7,127.9,14.9,127.9,14.9s-74.9-29.8-73-16.1c1.9,14.3,112.4,63.3,112.4,63.3 s-100.1-29.8-93.7-7.4c5.8,22.3,125.3,112.9,125.3,112.9s-136.3-98-147.3-84.3c-11.6,13.6,57.5,67.6,57.5,67.6 s-113.7-67.6-153.7-47.7c-29.1,14.3,118.2,106.7,118.2,106.7s-95.6-70.1-118.2-51.5S1486,717.7,1486,717.7 s-148.6-153.8-163.4-146.3c-14.9,7.4,40.7,81.2,40.7,81.2s-72.3-76.9-92.4-63.9c-20,13.6,104.6,212.7,104.6,212.7 s-135-204-191.2-169.9c87.2,184.2,54.9,210.2,54.9,210.2s-11-187.9-120.2-182.9c-54.9,2.5,25.8,140.1,25.8,140.1 s-74.3-125.9-124-123.4c91.1,166.2,58.8,233.2,58.8,233.2s14.9-142-108.5-220.8c47.2,40.3-29.7,220.8-29.7,220.8 s67.2-266-49.7-215.2c-18.7,8.1-1.3,132.7-1.3,132.7s-23.3-142.6-58.8-135.2c-20.7,4.3-130.5,197.8-130.5,197.8 s89.8-209,62.7-200.3c-20,6.2-57.5,92.4-57.5,92.4s18.1-85,0-89.9c-18.1-5-120.2,89.9-120.2,89.9s75.6-85,62.7-102.9 c-20-26.7-42.6-27.9-70.4-17.4c-40.1,14.9-93.7,85-93.7,85s53.6-71.3,44.6-97.4c-14.9-42.8-169.2,82.5-169.2,82.5 s91.1-82.5,70.4-100.5c-20.7-17.4-134.4-12.4-169.2-12.4C157.2,619.1,121,595.6,89.4,571.4"></path> <path class="st3" d="M83.6,556.5c136.9,65.7,262.3-9.9,419.9,32.9c120.2,32.2,266.1,72.6,464.5,44.6 c198.3-27.3,367.6-110.4,448.9-258c25.2-65.7,127.9,14.9,127.9,14.9s-74.9-29.8-73-16.1c1.9,14.3,112.4,63.3,112.4,63.3 s-100.1-29.8-93.7-7.4c5.8,22.3,125.3,112.9,125.3,112.9s-135-98.6-146-85c-11,13.6,57.5,67.6,57.5,67.6s-113.7-67.6-153.7-47.7 c-29.1,14.3,118.2,106.7,118.2,106.7s-95.6-70.1-118.2-51.5s107.9,168.7,107.9,168.7s-147.9-153.8-162.8-146.3 c-14.9,7.4,40.7,81.2,40.7,81.2s-73.6-76.3-93.7-63.3c-20,13.6,104,212.7,104,212.7s-135-204.6-190.6-170.5 c87.9,184.8,54.9,210.8,54.9,210.8s-11-187.9-120.2-182.9c-54.9,2.5,25.8,140.1,25.8,140.1s-73.6-125.3-123.4-122.8 c91.1,166.2,58.8,233.2,58.8,233.2s14.9-142-108.5-220.8c47.2,40.3-29.7,220.8-29.7,220.8s67.2-266-49.7-215.2 c-18.7,8.1-1.3,132.7-1.3,132.7s-23.3-142.6-58.8-135.2c-20.7,4.3-130.5,197.8-130.5,197.8s89.8-209,62.7-200.3 c-20,6.2-57.5,92.4-57.5,92.4s18.1-85,0-89.9c-18.1-5-120.2,89.9-120.2,89.9s75.6-85,62.7-102.9c-20-26.7-42.6-27.9-70.4-17.4 c-40.1,14.9-93.7,85-93.7,85s53.6-71.3,44.6-97.4c-14.9-42.8-169.2,82.5-169.2,82.5S446.6,634,425.9,616 c-20.7-17.4-134.4-12.4-169.2-12.4C151.4,604.2,115.2,580.7,83.6,556.5"></path> </g> </svg> 