<?xml version="1.0" encoding="UTF-8"?> <svg xmlns="http://www.w3.org/2000/svg" id="Layer_1" data-name="Layer 1" viewBox="0 0 148 148"><defs><style>.cls-1{fill:#3789ef;}</style></defs><title>08-Artboard 10 copy</title><path class="cls-1" d="M146.29,72.32v3.94a3.12,3.12,0,0,0-.24.65,21.17,21.17,0,0,1-4.25,9.81,39.18,39.18,0,0,1-11.1,9.8,1.45,1.45,0,0,0-.81,1.89,41.21,41.21,0,0,1,.95,14.78,19.43,19.43,0,0,1-14.9,17.06,35.1,35.1,0,0,1-16.7-.22c-1.5-.34-2.26-.14-3.12,1.24-3.13,5-6.92,9.52-12.26,12.3-2.36,1.23-5.05,1.83-7.6,2.72H72.32a3.08,3.08,0,0,0-.65-.24,20.61,20.61,0,0,1-9-3.68A37.14,37.14,0,0,1,52.3,131,2,2,0,0,0,49.62,130a39.21,39.21,0,0,1-14.22.85A19.55,19.55,0,0,1,18,114.57a39,39,0,0,1,.68-16.16,1.48,1.48,0,0,0-.8-1.9,52.92,52.92,0,0,1-4.6-3.22c-4.38-3.5-8.09-7.55-9.92-13-.45-1.32-.72-2.69-1.08-4q0-2,0-3.94a3.25,3.25,0,0,0,.24-.65A21.72,21.72,0,0,1,7.47,61a40,40,0,0,1,10.42-8.91,1.45,1.45,0,0,0,.81-1.89,41.18,41.18,0,0,1-.95-14.78,19.43,19.43,0,0,1,14.9-17.06,35.08,35.08,0,0,1,16.7.22c1.5.34,2.26.14,3.12-1.23C55.6,12.29,59.4,7.8,64.72,5c2.36-1.24,5.06-1.83,7.6-2.71h3.94a2.12,2.12,0,0,0,.51.22,22.35,22.35,0,0,1,11.7,5.68,40.7,40.7,0,0,1,8,9.7,1.45,1.45,0,0,0,1.89.8,41.45,41.45,0,0,1,14.78-.94,19.42,19.42,0,0,1,17.09,15A35.09,35.09,0,0,1,130,49.35c-.34,1.5-.13,2.26,1.24,3.11,5.06,3.16,9.58,7,12.37,12.38A55.25,55.25,0,0,1,146.29,72.32ZM74.26,106c4-.22,8-.4,11.88-.67a3.22,3.22,0,0,0,1.74-.71A138.38,138.38,0,0,0,104.56,87.9a3.33,3.33,0,0,0,.73-1.73,129.26,129.26,0,0,0,0-23.72,3.33,3.33,0,0,0-.71-1.74A140.09,140.09,0,0,0,87.9,44a3.09,3.09,0,0,0-1.6-.71,129.88,129.88,0,0,0-24,0,3.1,3.1,0,0,0-1.61.69A139.78,139.78,0,0,0,44,60.68a3.34,3.34,0,0,0-.72,1.74,130.28,130.28,0,0,0,0,23.86,2.86,2.86,0,0,0,.61,1.49,140.31,140.31,0,0,0,16.88,16.88,2.76,2.76,0,0,0,1.49.62C66.3,105.54,70.32,105.74,74.26,106ZM55.55,128.44A29.59,29.59,0,0,0,67,140a15.42,15.42,0,0,0,14.82-.1c4.87-2.56,8.34-6.57,11.17-11.19,0-.05,0-.17-.07-.31A95.43,95.43,0,0,1,75,120.16a1.62,1.62,0,0,0-1.37,0A96.35,96.35,0,0,1,55.55,128.44Zm73-73c-.16.33-.24.48-.3.64a90.91,90.91,0,0,1-8,17.28,1.61,1.61,0,0,0,.06,1.9,92.63,92.63,0,0,1,7.9,17c.08.24.2.47.31.71a32.09,32.09,0,0,0,9.71-8.54c2.59-3.58,4.11-7.53,3.46-12C140.51,64.45,134.91,59.72,128.56,55.44ZM20.1,93.15A97.19,97.19,0,0,1,28.44,74.9a1.88,1.88,0,0,0-.14-1.49c-.91-1.79-2-3.49-2.86-5.31-1.9-4.1-3.69-8.26-5.58-12.53-4.51,2.91-8.64,6.34-11.21,11.32a15.42,15.42,0,0,0,.2,15.2C11.42,86.83,15.42,90.17,20.1,93.15ZM93.16,20.1c-2.73-4.26-5.75-8-9.93-10.58-5.89-3.67-11.83-3.7-17.75-.08A31,31,0,0,0,56,19.13a10,10,0,0,0-.51,1A95.53,95.53,0,0,1,73.6,28.41a1.62,1.62,0,0,0,1.37,0A95.93,95.93,0,0,1,93.16,20.1Zm6.28,2.51c1.32,3.21,2.69,6.23,3.82,9.34s2,6.33,3,9.47a2,2,0,0,0,1.27,1,95.63,95.63,0,0,1,17.22,6.3c.36.17.74.32,1.15.5a35.68,35.68,0,0,0,.95-11.67c-.64-8.06-5.65-13.87-13.51-15.49A31.88,31.88,0,0,0,99.44,22.61Zm-50.27,0a35,35,0,0,0-11.7-.93c-7.26.6-12.89,4.83-14.84,11.6a31.8,31.8,0,0,0-1,8.31,65.6,65.6,0,0,0,.8,7.78,99.47,99.47,0,0,1,19-7.14c.43-.12.83-.79,1-1.29,1.16-3.46,2.16-7,3.39-10.4C46.8,27.9,48,25.32,49.17,22.64ZM126,99.28a100.36,100.36,0,0,1-18.79,7c-.45.12-.87.86-1.06,1.4-1.62,4.58-3.14,9.19-4.77,13.76-.54,1.52-1.31,3-2,4.47a35.68,35.68,0,0,0,11.67.95c7.94-.63,13.53-5.36,15.37-13.11C127.53,109,127,104.21,126,99.28ZM22.58,99.6a35.09,35.09,0,0,0-.88,11.46c.68,8.12,5.83,14,13.68,15.49A32.86,32.86,0,0,0,49.17,126a2,2,0,0,0-.09-.46,99.17,99.17,0,0,1-6.76-18.24,2,2,0,0,0-1.19-1.09c-1.54-.53-3.17-.83-4.7-1.39C31.82,103.11,27.25,101.36,22.58,99.6ZM95.24,23.72a79,79,0,0,0-16.83,7.61c2.41,1.74,4.8,3.24,6.93,5.05A12.6,12.6,0,0,0,93,39.64c2.86.18,5.7.85,8.74,1.34A79.61,79.61,0,0,0,95.24,23.72Zm-54.31,78c-.56-3.73-1.16-7.26-1.58-10.82A7.55,7.55,0,0,0,37.66,87c-1.94-2.52-3.76-5.13-5.63-7.7-.2-.27-.43-.53-.73-.91a79.36,79.36,0,0,0-7.55,16.84A79.51,79.51,0,0,0,40.94,101.72Zm0-54.79a5.12,5.12,0,0,0-1,.15c-5,1.88-10,3.78-15.07,5.65-1.06.39-1.17,1-.74,1.93,2.19,4.79,4.36,9.6,6.55,14.39a8.5,8.5,0,0,0,.68,1c1.65-2.3,3.11-4.6,4.85-6.67a13.14,13.14,0,0,0,3.45-8C39.83,52.63,40.5,49.84,41,46.94ZM70,31.35a1,1,0,0,0-.23-.26A83.46,83.46,0,0,0,54.26,24c-.86-.29-1.19.1-1.45.79Q50,32.24,47.17,39.7a8.28,8.28,0,0,0-.26,1.23c3.77-.57,7.41-1.11,11-1.68a5.09,5.09,0,0,0,2.12-.53C63.43,36.32,66.69,33.83,70,31.35Zm47.25,47.07c-1.72,2.38-3.17,4.69-4.92,6.75a13,13,0,0,0-3.4,7.87c-.17,2.86-.84,5.68-1.31,8.64a9.71,9.71,0,0,0,1.21-.25c4.35-1.56,8.73-3,13-4.73,3.21-1.27,3.16-1.41,1.94-4.67A83.4,83.4,0,0,0,117.25,78.42Zm-15.32,29.13c-2.93.49-5.41,1.09-7.91,1.27a14.11,14.11,0,0,0-9,3.58,71.24,71.24,0,0,1-6.53,4.78c2.59,2,13.08,6.89,16,7.43a1.36,1.36,0,0,0,1.11-.63c1-2.15,2.08-4.3,2.91-6.52C99.75,114.28,100.76,111,101.93,107.55Zm-31.76,9.71c-2.42-1.74-4.76-3.24-6.87-5A12.7,12.7,0,0,0,55.69,109c-2.9-.18-5.78-.86-8.85-1.35a77.67,77.67,0,0,0,6.27,16.74,1,1,0,0,0,.92.28A80.27,80.27,0,0,0,70.17,117.26ZM107.54,46.5c.57,3.52,1,6.47,1.53,9.42.22,1.37.07,3,.77,4.06,2.29,3.45,4.9,6.7,7.45,10.12a78.65,78.65,0,0,0,7.3-16,1.36,1.36,0,0,0-.59-1.13,22.2,22.2,0,0,0-3.28-1.58C116.46,49.75,112.16,48.2,107.54,46.5ZM44.27,53.17l9-8.92c-2.49.47-4.85.9-7.19,1.38-.22,0-.47.44-.53.7C45.12,48.6,44.7,50.88,44.27,53.17Zm51.42-8.85,8.61,8.77c-.44-2.34-.86-4.63-1.33-6.91a1,1,0,0,0-.66-.58C100.07,45.13,97.82,44.72,95.69,44.32ZM44.28,95.44c.46,2.43.89,4.75,1.35,7.06a.72.72,0,0,0,.46.46c2.31.46,4.63.88,7,1.33Zm51.13,8.87c2.4-.45,4.64-.86,6.87-1.32a1,1,0,0,0,.68-.56c.47-2.29.89-4.6,1.36-7.09Zm-15-65.95.13-.25c-1.88-1.29-3.76-2.59-5.66-3.85a1.16,1.16,0,0,0-1-.13c-2,1.29-3.92,2.64-5.87,4l.12.26ZM38.36,68.17,38.11,68c-1.32,1.92-2.65,3.82-3.93,5.77a1.14,1.14,0,0,0,0,1c1.27,1.94,2.6,3.83,3.91,5.75l.24-.11Zm42.48,42.09H67.72c2.17,1.49,4,2.79,5.88,4a1.66,1.66,0,0,0,1.46,0C76.91,113,78.69,111.74,80.84,110.26Zm29.37-29.82.24.11c1.33-1.94,2.68-3.88,4-5.84a.87.87,0,0,0,0-.78c-1.32-2-2.67-3.94-4-5.91l-.24.16Z"></path><path class="cls-1" d="M55.75,74.3c0-4.3.08-8.61,0-12.9a6.79,6.79,0,0,1,2.95-6A22.57,22.57,0,0,1,69.12,51.5a32,32,0,0,1,16.54,1.64,20.34,20.34,0,0,1,3.72,1.92,7.12,7.12,0,0,1,3.5,6.54c-.11,8.55-.08,17.11,0,25.67A6.79,6.79,0,0,1,90,93.1,22.45,22.45,0,0,1,79.67,97a31.69,31.69,0,0,1-17.48-1.9A18.08,18.08,0,0,1,58.56,93a6.47,6.47,0,0,1-2.85-5.7C55.82,83,55.75,78.65,55.75,74.3Zm18.32-19c-3.14.58-6.52,1.1-9.84,1.86a8.28,8.28,0,0,0-3.12,1.73,1.69,1.69,0,0,0,0,2.86,8.55,8.55,0,0,0,2.83,1.68,34,34,0,0,0,20.68.06,8.57,8.57,0,0,0,2.31-1.18c1.8-1.24,1.83-2.73,0-3.92a10.2,10.2,0,0,0-3.4-1.54C80.51,56.27,77.45,55.87,74.07,55.32ZM60.49,66.64c-.58,3.7.12,4.92,3.52,6.18l.42.13a34.26,34.26,0,0,0,19.86-.07c3.71-1.15,4.34-2.32,3.85-6.28A33.1,33.1,0,0,1,60.49,66.64ZM88.15,85.17a33.23,33.23,0,0,1-27.73,0c-.31,4.16.2,5.13,3.84,6.26a33.59,33.59,0,0,0,19.85.07C88,90.38,88.53,89.31,88.15,85.17ZM60.43,75.88c-.22,3.82-.7,4.69,4,6.33a26.33,26.33,0,0,0,6.22,1.22c4.93.44,9.87.33,14.53-1.61,3.05-1.27,3.47-2.09,2.81-5.88A33,33,0,0,1,60.43,75.88Z"></path><path class="cls-1" d="M118.32,30.32v4.39h-4.44V30.32Z"></path><path class="cls-1" d="M34.73,30.32v4.4H30.3v-4.4Z"></path><path class="cls-1" d="M118.3,113.88v4.42h-4.43v-4.42Z"></path><path class="cls-1" d="M34.69,118.31h-4.4v-4.43h4.4Z"></path></svg> 