<?xml version="1.0" encoding="UTF-8"?> <svg xmlns="http://www.w3.org/2000/svg" id="Layer_1" data-name="Layer 1" viewBox="0 0 148 148"><defs><style>.cls-1{fill:#3789ef;}</style></defs><title>09-Artboard 10 copy 2</title><path class="cls-1" d="M146,41.31A39.44,39.44,0,0,0,74.75,18L67,15.64a7,7,0,0,0-13.92.12,6.88,6.88,0,0,0,.59,2.78L46.83,30.42a6.72,6.72,0,0,0-6,0L31.53,18.69a6.9,6.9,0,0,0,.66-2.92,7,7,0,1,0-12,4.82L9.81,41.4A6.75,6.75,0,0,0,9,41.31,7,7,0,0,0,9,55.25a6.77,6.77,0,0,0,1.3-.13l8,13.68A37.37,37.37,0,0,0,39.39,137a36.94,36.94,0,0,0,6.14-.54l2.3-.38L42,102.23,75.85,108l.38-2.31A37.19,37.19,0,0,0,39.39,62.21a37.12,37.12,0,0,0-17.15,4.2l-8-13.67A6.87,6.87,0,0,0,14,43.45L24.38,22.64a6.77,6.77,0,0,0,.85.09,6.88,6.88,0,0,0,3-.71L37.5,33.74a6.9,6.9,0,0,0-.66,2.92,7,7,0,1,0,13.35-2.78L57,22a6.82,6.82,0,0,0,8.48-2l6.58,2A39.4,39.4,0,0,0,99.55,80.14v5.3H94.9v48.77a11.61,11.61,0,0,0,23.23,0V85.44h-4.65v-5.3A39.52,39.52,0,0,0,146,41.31ZM42.45,132.18a29.36,29.36,0,0,1-3.06.16,32.66,32.66,0,0,1-25-11.63l22.81-19ZM72.13,99.6a29.49,29.49,0,0,1-.16,3.06L41.48,97.42V67A32.76,32.76,0,0,1,72.13,99.6ZM36.84,67V96l-25.18,21A32.59,32.59,0,0,1,20.6,72.83l2.62,4.49,4-2.34-2.65-4.54A32.45,32.45,0,0,1,36.84,67ZM6.65,48.28A2.32,2.32,0,1,1,9,50.6,2.32,2.32,0,0,1,6.65,48.28ZM25.23,18.09a2.32,2.32,0,1,1,2.32-2.32A2.32,2.32,0,0,1,25.23,18.09ZM43.81,39a2.32,2.32,0,1,1,2.32-2.32A2.32,2.32,0,0,1,43.81,39Zm16.26-20.9a2.32,2.32,0,1,1,2.32-2.32A2.32,2.32,0,0,1,60.06,18.09ZM71.68,41.31a34.58,34.58,0,0,1,5-17.91l4.59,1.38A30.17,30.17,0,0,0,126,64.34l-3-3.54A25.52,25.52,0,0,1,86,26.19l20.58,6.18a6.86,6.86,0,0,0,.66,2.64l-9.33,9.32a6.87,6.87,0,0,0-3-.7,7,7,0,1,0,7,7,6.86,6.86,0,0,0-.7-3l9.33-9.32a6.9,6.9,0,0,0,3,.7,7,7,0,1,0-5.6-11.07L89.43,22.37A25.52,25.52,0,0,1,126,57.81l3.54,3a30.16,30.16,0,0,0-45.17-40l-4.9-1.47a34.81,34.81,0,1,1-7.8,21.93ZM111.16,32a2.32,2.32,0,1,1,2.32,2.32A2.32,2.32,0,0,1,111.16,32ZM97.23,50.6a2.32,2.32,0,1,1-2.32-2.32A2.33,2.33,0,0,1,97.23,50.6Zm16.26,39.48v4.65H99.55V90.09Zm-7,51.1a7,7,0,0,1-7-7V99.38h13.94v34.84A7,7,0,0,1,106.52,141.18Zm2.32-55.74h-4.65V80.68c.77,0,1.54.12,2.32.12s1.55-.07,2.32-.12Z"></path><path class="cls-1" d="M52.59,146.17l2.29-.38a37.29,37.29,0,0,0,30.71-30.71L86,112.8l-40-6.68Zm3.8-5.42-4.83-29,29,4.83A32.64,32.64,0,0,1,56.39,140.75Z"></path><path class="cls-1" d="M108.84,134.21a2.32,2.32,0,1,1-2.32-2.32A2.32,2.32,0,0,1,108.84,134.21Z"></path></svg> 