<?xml version="1.0" encoding="UTF-8"?> <svg xmlns="http://www.w3.org/2000/svg" id="Layer_1" data-name="Layer 1" viewBox="0 0 148 148"><defs><style>.cls-1{fill:#3789ef;}</style></defs><title>AI-ML</title><path class="cls-1" d="M82.63,94.85v5c-1.2,0-2.35.08-3.48,0s-1.44.32-1.44,1.44q.06,16.5,0,33c0,2.56.27,2.23-2.27,2.25-2.72,0-2.73,0-2.72-2.69v-7c-1.24,1-2.18,1.85-3.17,2.61A22.32,22.32,0,0,1,57.7,134a22.73,22.73,0,0,1-15.25-4,19.55,19.55,0,0,1-6.57-7.38,1.46,1.46,0,0,0-1.48-.91c-5.55-.14-10-2.57-13.79-6.51a22.48,22.48,0,0,1-6.26-12.62c-.36-2.54-.12-5.17-.24-7.75a5.92,5.92,0,0,0-.56-2.63A33.68,33.68,0,0,1,9.11,77.83a33.07,33.07,0,0,1,3.2-17.22,23,23,0,0,1,8-9.44,2.19,2.19,0,0,0,.81-1.53c.28-5.79,1.71-11.19,5.45-15.77a19.69,19.69,0,0,1,11.84-7.25,2.38,2.38,0,0,0,1.92-1.44,18.79,18.79,0,0,1,14-10.83,18.71,18.71,0,0,1,17,4.83l1.29,1.16v-8.8c1.58,0,3,0,4.37,0,.23,0,.55.43.65.71a3.67,3.67,0,0,1,0,1.15V45.8c.54,0,1,.06,1.44.06,2.31,0,4.63-.14,6.93,0a4.81,4.81,0,0,0,4.63-2.15c2.53-3.25,5.27-6.35,7.83-9.4-.41-1.46-.84-2.83-1.16-4.22C96.55,26.3,98.78,22,102.26,20a10.22,10.22,0,0,1,11,1.07A9.83,9.83,0,0,1,103.88,38a1.78,1.78,0,0,0-2.34.65c-3.24,4-6.59,7.9-10,11.8a1.79,1.79,0,0,1-1.22.42c-3.77,0-7.53.06-11.3,0-1.09,0-1.4.35-1.35,1.4a39.56,39.56,0,0,1,0,4.49c-.08,1.18.38,1.49,1.47,1.41s2.21,0,3.4,0v5c-1.21,0-2.44,0-3.66,0-.85,0-1.24.19-1.21,1.13.06,2,0,3.92,0,6.07H84c3.59,0,3.59,0,3.56,3.64,0,.38,0,.76-.07,1.34H82.78c-1.37,0-2.74,0-4.11,0-.32,0-.87.46-.88.74-.09,1.62-.05,3.24-.05,4.87v1.56H82.6v5H77.76c0,2.33,0,4.5,0,6.66,0,.22.65.57,1,.59C80,94.9,81.28,94.85,82.63,94.85ZM60.24,113.07c-1.24-.46-2.37-.93-3.55-1.29-.8-.25-.85-.6-.53-1.31,3-6.55,8-10.13,15.17-10.66,1.33-.1,1.49-.56,1.48-1.68,0-8.26-.06-16.52,0-24.78a6.36,6.36,0,0,0-1.32-4,8.39,8.39,0,0,0-9.39-3.54,15.68,15.68,0,0,0-7.44,4.51,50.74,50.74,0,0,1-5.75,5.24,13.33,13.33,0,0,1-12.12,2,2.15,2.15,0,0,0-.28.39,11.23,11.23,0,0,1-8.76,7c-1.28.26-1.54.07-1.56-1.21,0-.6.05-1.21,0-1.8-.14-1.21.24-1.79,1.55-2a5.78,5.78,0,0,0,4.52-5.5,5.9,5.9,0,0,0-3.9-6.11c-2.16-.8-2.16-.8-2.16-3.11v-.77c0-1.44.25-1.6,1.7-1.31a11,11,0,0,1,9,8.35c.11.38.35.93.62,1a14.62,14.62,0,0,0,4.33.7c3.28-.3,5.6-2.45,7.84-4.68a37,37,0,0,1,5.41-4.86c4.95-3.28,10.25-4.29,15.81-1.37.55.28,1.07.6,1.65.93.09-.24.18-.35.18-.46,0-6.08,0-12.16,0-18.23,0-.29-.59-.83-.9-.83a16.35,16.35,0,0,1-8.25-2.3A17.12,17.12,0,0,1,55.8,32c.9-.33,1.68-.64,2.47-.9,2.08-.7,2-.66,3,1.22a12.05,12.05,0,0,0,10.34,6.5c.35,0,1.08-.54,1.07-.82a36.88,36.88,0,0,0-.34-7.52A14.68,14.68,0,1,0,56,48.17c2,.28,2,.22,2,2.1,0,3.68.5,3-3.23,2.61-3.31-.34-6.14-1.92-8.83-3.8a1.57,1.57,0,0,0-1.22-.26c-2.89,1.15-5.4,2.73-6.26,6-.07.28-.44.67-.7.68-1.31.07-2.62,0-4.12,0,.14-5.71,3.88-8.54,8.13-11.06A19.7,19.7,0,0,1,38.6,31.72c-.52.13-.85.19-1.16.3-7.95,2.82-12.2,12.17-11,19.89.18,1.18,0,1.92-1.23,2.37a13.32,13.32,0,0,0-5.82,4.49C14.92,64.36,13.49,70.9,14,77.87a25.88,25.88,0,0,0,5,13.5,2.39,2.39,0,0,1,.37,1.71,21.18,21.18,0,0,0-.14,8.86c1.44,6.67,5,11.71,11.57,14.19a24.08,24.08,0,0,0,3,.72,51.79,51.79,0,0,1,.06-6.63,51.14,51.14,0,0,1,1.66-6.28c-4.79-2.22-8.9-5.17-9.33-11.37h4.67a21.83,21.83,0,0,0,.91,2.33c1.31,2.39,3.56,3.59,6,4.57a1.43,1.43,0,0,0,1.78-.41A21.94,21.94,0,0,1,52.3,92.63a1.41,1.41,0,0,0,.86-1c1.05-5.47,4.56-8.81,9.44-10.93a14.15,14.15,0,0,1,2.84-.6c0,1.6,0,2.92,0,4.23a1.2,1.2,0,0,1-.66.76C60.17,87.07,57.49,90.21,58,95.5c.16,1.7,0,1.71-1.74,1.73a18.4,18.4,0,0,0-13,5,14.94,14.94,0,0,0-1.33,20.48,17,17,0,0,0,17.33,6c7.13-1.46,12-5.79,13.29-13.15.59-3.32.23-6.81.22-10.23,0-.26-.69-.77-1-.75A12.17,12.17,0,0,0,62,110C61.35,110.92,60.86,112,60.24,113.07Zm46.91-89.19a4.93,4.93,0,0,0-5,4.84,4.9,4.9,0,1,0,9.79,0A5,5,0,0,0,107.15,23.88Z"></path><path class="cls-1" d="M97.22,87.61v-5c2.12,0,4.2,0,6.28,0,.33,0,.72.54,1,.9,2.81,4.22,5.67,8.41,8.39,12.68,1,1.55,2.35.89,3.56.88.43,0,1-.86,1.25-1.44a10.12,10.12,0,0,1,9.61-5.77,9.83,9.83,0,0,1,.44,19.59,9.53,9.53,0,0,1-10.28-6.41,1.15,1.15,0,0,0-1.33-.87c-1.37,0-2.74,0-4.11,0a1.88,1.88,0,0,1-1.87-1c-2.65-4.12-5.41-8.17-8.06-12.29a2.45,2.45,0,0,0-2.6-1.37A18.52,18.52,0,0,1,97.22,87.61Zm34.32,12.22a4.9,4.9,0,1,0-4.83,4.8A4.88,4.88,0,0,0,131.54,99.83Z"></path><path class="cls-1" d="M97.23,63.17v-5a17.73,17.73,0,0,0,2.53,0,2.28,2.28,0,0,0,1.45-.73q4.58-6.55,9-13.19a1.77,1.77,0,0,1,1.76-.92c1.32.06,2.65,0,4,0a1.33,1.33,0,0,0,1.51-1,9.88,9.88,0,0,1,13.79-5.21c5.71,2.84,6.91,10.74,2.64,15.48-3.83,4.26-11.94,4-15.23-1a14.65,14.65,0,0,1-1.1-2c-.72-1.6-3.47-2-4.5-.5-2.33,3.31-4.59,6.67-6.87,10-.77,1.13-1.52,2.27-2.33,3.36a1.62,1.62,0,0,1-1,.65C101.05,63.2,99.21,63.17,97.23,63.17ZM126.71,41a4.65,4.65,0,0,0-4.87,4.72,4.72,4.72,0,0,0,4.79,4.94A4.89,4.89,0,0,0,131.54,46,5,5,0,0,0,126.71,41Z"></path><path class="cls-1" d="M87.54,99.65c0-1.36,0-2.73,0-4.09a1,1,0,0,1,.68-.66,12.1,12.1,0,0,1,2.69,0,1.72,1.72,0,0,1,1,.74q5.42,7.92,10.75,15.88a1.51,1.51,0,0,0,1.94.79,9.8,9.8,0,1,1,2.72,19.28,9.52,9.52,0,0,1-8.8-4.69,9.63,9.63,0,0,1,.08-10.26c.34-.56.79-1,.24-1.82-3.17-4.58-6.26-9.23-9.42-13.82a10.06,10.06,0,0,0-1.66-1.52ZM107,126.56c2.67.37,5-2.53,5-4.77a5.11,5.11,0,0,0-5-4.8,5,5,0,0,0-4.78,4.85C102.23,123.94,104,126.77,107,126.56Z"></path><path class="cls-1" d="M102.08,75.34c0-1.34.07-2.45,0-3.55s.28-1.47,1.42-1.46c4.79.06,9.58,0,14.37.06a2.12,2.12,0,0,0,2.33-1.57,9.84,9.84,0,1,1,8.34,13.85A9.47,9.47,0,0,1,120,76.49a1.45,1.45,0,0,0-1.63-1.17c-4.88,0-9.75,0-14.63,0ZM133.88,73a4.79,4.79,0,1,0-9.58-.16,5,5,0,0,0,4.88,4.9C131.33,77.76,134.16,75.42,133.88,73Z"></path><path class="cls-1" d="M92.26,75.34c0-1.52,0-2.79,0-4.07,0-.66.24-.93.89-.91,1.11,0,2.22,0,3.33,0,.27,0,.73.38.74.61.07,1.39,0,2.79,0,4.33h-5Z"></path><path class="cls-1" d="M92.26,63.17c-1.47,0-2.7,0-3.93,0-.28,0-.59-.43-.77-.73s0-.5,0-.75c0-3.9,0-3.92,4-3.46a1.09,1.09,0,0,1,.75.71C92.31,60.26,92.26,61.62,92.26,63.17Z"></path><path class="cls-1" d="M87.6,87.6V82.68h4.65c0,1.47,0,2.9,0,4.33,0,.21-.48.55-.75.57C90.25,87.64,89,87.6,87.6,87.6Z"></path></svg> 