<?xml version="1.0" encoding="UTF-8"?> <svg xmlns="http://www.w3.org/2000/svg" id="Layer_1" data-name="Layer 1" viewBox="0 0 150 150"><defs><style>.cls-1{fill:#3789ef;}</style></defs><title>Artboard 1</title><path class="cls-1" d="M33.38,94v52.66h22V94Zm17.51,48.13H38V98.54H50.89Z"></path><path class="cls-1" d="M64,69.92v76.71H86V69.92ZM81.49,142h-13V74.48h13Z"></path><path class="cls-1" d="M125.2,43.69V146.63h22V43.69Zm17.45,98.49H129.75V48.28h12.89Z"></path><path class="cls-1" d="M94.55,85.27v61.36h22.09V85.27Zm17.53,56.79h-13V89.8h13Z"></path><path class="cls-1" d="M135.88,4.38a4.91,4.91,0,0,0-4.94,4.88,4.77,4.77,0,0,0,.42,2l.23.52-.33.47L106.55,46.6l-.59-.07a5.07,5.07,0,0,0-3.33.76l-.47.31L80,36.76l0-.6a4.94,4.94,0,1,0-9.82,1l.09.58L46.85,56.1l-.54-.21a5,5,0,0,0-1.85-.35,4.91,4.91,0,0,0-4.91,4.3l-.07.6L17.38,69l-.44-.33a4.86,4.86,0,1,0,1.89,4.63l.09-.57,22.28-8.61.44.3a5,5,0,0,0,7.78-4,4.83,4.83,0,0,0,0-.54l-.06-.55L72.85,40.79l.52.18a5,5,0,0,0,4.16-.41l.46-.27,22.39,10.94,0,.56a4.94,4.94,0,0,0,9.86-.42,4.79,4.79,0,0,0-.33-1.76l-.2-.51,25.16-35,.56,0,.4,0a4.88,4.88,0,1,0,0-9.75Z"></path><path class="cls-1" d="M2.78,107.1v39.53h22V107.1Zm17.49,35H7.35V111.69H20.27Z"></path></svg> 