<?xml version="1.0" encoding="UTF-8"?> <svg xmlns="http://www.w3.org/2000/svg" id="Layer_1" data-name="Layer 1" viewBox="0 0 150 150"><defs><style>.cls-1{fill:#3789ef;}</style></defs><title>Artboard 4</title><path class="cls-1" d="M97,18.48H54.71V59.91H97ZM92.7,55.59H59V22.79H92.7ZM2.92,130.69h42.3V89.26H2.92ZM7.24,93.58H40.9v32.8H7.24Zm97.54-4.32v41.43h42.3V89.26Zm38,37.12H109.1V93.58h33.67ZM107.15,54.82A2.22,2.22,0,0,0,110,55.9a2.18,2.18,0,0,0,1.11-2.9l-3.85-8.73A32.43,32.43,0,0,1,124.5,82.21s-.75,1,2,2c.6.22,1.71.73,2.2-.73A36.89,36.89,0,0,0,109.14,40.3l8.21-3.56a2.18,2.18,0,0,0,1.11-2.9,2.22,2.22,0,0,0-2.9-1.16l-13.08,5.68h0l-.07,0-.15.07a2.18,2.18,0,0,0-1,2.86l5.91,13.4ZM48.32,34c-.18-.61-.45-1.81-1.91-1.31A36.81,36.81,0,0,0,23.67,74.27l-7.79-4.41a2.18,2.18,0,0,0-3,.86,2.21,2.21,0,0,0,.82,3l12.43,7h0l.07,0,.14.07a2.19,2.19,0,0,0,2.91-.9L36.44,67.2l0-.07a2.21,2.21,0,0,0-.86-2.93,2.18,2.18,0,0,0-3,.86L28,73.37a32.36,32.36,0,0,1,20-36.55S49.16,36.83,48.32,34Zm2.85,80.61c-1.27,1.41-.72,2.13-.72,2.13a36.86,36.86,0,0,0,43.31,4.39l-1.63,8.8a2.18,2.18,0,0,0,1.78,2.54,2.21,2.21,0,0,0,2.58-1.76l2.59-14v-.1l0-.16a2.18,2.18,0,0,0-1.8-2.46l-14.41-2.59h-.08a2.22,2.22,0,0,0-2.49,1.77,2.18,2.18,0,0,0,1.78,2.54l9.38,1.7a32.74,32.74,0,0,1-37.92-3.71C53.07,113.23,52.44,113.21,51.17,114.62Z"></path><path class="cls-1" d="M31.12,121.7v-4.33H20.71v-6.07h8.67V107H20.71v-5.2h10.4V97.44H16.38V121.7Z"></path><path class="cls-1" d="M71.81,51.66V40.88L79.6,51.66h5.1L75.34,39,84.27,27.6H79.69L71.81,38V27.63H67.52v24Z"></path><path class="cls-1" d="M132.35,122.13v-4.22l-9.39-.05V98.21h-4.28v23.93Z"></path></svg> 