<?xml version="1.0" encoding="UTF-8"?> <svg xmlns="http://www.w3.org/2000/svg" id="Layer_1" data-name="Layer 1" viewBox="0 0 150 150"><defs><style>.cls-1{fill:#3789ef;}</style></defs><title>Artboard 2</title><path class="cls-1" d="M126.64,90.94c1.48-2.48,2.66-5.1,4.55-8.14l.2-.31c.44-.68.58-1,.34-1.37a2,2,0,0,0-1.82-1.06h0a5.21,5.21,0,0,0-.9.13c-.22,0-.44.09-.68.12a8.36,8.36,0,0,1-1.06.08,2.5,2.5,0,0,1-1.9-.64,3.35,3.35,0,0,1-.74-2.27h0v-31a4.28,4.28,0,0,0-4.27-4.29H102.7V24.76A7.81,7.81,0,0,0,94.9,17H73.21a7.81,7.81,0,0,0-7.8,7.79v1H64.22a7.81,7.81,0,0,0-7.8,7.79v1.18H55.24a7.8,7.8,0,0,0-7.74,6.85l-.07.59h-18a4.28,4.28,0,0,0-4.27,4.29v36.4C12.73,83.53,2.5,88.72,2.5,95.81v22.85c0,9,9.67,14.37,24.74,14.37C40.9,133,52,127,52,119.62V96.19c0-6.88-10.29-12.55-22.6-13.32h0V50a3.64,3.64,0,0,1,3.72-3.54H47.44V64.35a7.81,7.81,0,0,0,7.8,7.79H76.93a7.81,7.81,0,0,0,7.8-7.79V63.17h1.18a7.81,7.81,0,0,0,7.8-7.79v-1H94.9a7.8,7.8,0,0,0,7.79-7.32l0-.63h13.86A3.64,3.64,0,0,1,120.3,50v27.5h0v.42a2.21,2.21,0,0,1-2.38,2.42h-.31l-.49,0a10.39,10.39,0,0,1-1.34-.14,3.77,3.77,0,0,0-.67-.07,1.45,1.45,0,0,0-1.39.77c-.34.59-.25,1.13.36,2.15,1.7,2.82,3,5.6,4.37,8C106.84,92,98,97,98,103.81v13c0,9,9.67,14.37,24.74,14.37,13.66,0,24.74-6,24.74-13.41V104.19C147.5,97.5,138.46,92,126.64,90.94ZM47.35,120.19c-1.1,7.71-20.14,8-20.14,8-19,0-20.14-8.24-20.14-8.24,0,1-.66-18.1.25-17.35,3.81,3.13,10.71,5.84,19.89,5.62,8.66-.21,16.44-2.42,19.64-5.55C47.73,101.87,47.5,119.19,47.35,120.19Zm-.19-24.67c0,4.39-8.93,8-19.94,8s-19.94-3.56-19.94-8,8.93-8,19.94-8S47.16,91.13,47.16,95.52ZM80.48,62.32a5.76,5.76,0,0,1-5.75,5.74H57.62a5.76,5.76,0,0,1-5.75-5.74V44.72A5.76,5.76,0,0,1,57.62,39H74.73a5.76,5.76,0,0,1,5.75,5.74Zm9-9a5.75,5.75,0,0,1-3.84,5.42l-.89.32V42.52a7.81,7.81,0,0,0-7.8-7.79H60.86l.32-.89A5.76,5.76,0,0,1,66.6,30H83.71a5.76,5.76,0,0,1,5.75,5.74Zm9-8.8A5.75,5.75,0,0,1,94.61,50l-.89.32V33.56a7.81,7.81,0,0,0-7.8-7.79h-16l.36-.91a5.72,5.72,0,0,1,5.35-3.64H92.69A5.76,5.76,0,0,1,98.45,27Zm24.29,51c11,0,19.94,3.56,19.94,8s-8.93,8-19.94,8-19.94-3.56-19.94-8S111.72,95.57,122.74,95.57Zm20.14,22.81c-1.1,7.71-20.14,8-20.14,8-19,0-20.14-8.24-20.14-8.24,0,1-.66-8.28.25-7.53,3.81,3.13,10.71,5.84,19.89,5.62,8.66-.21,16.44-2.42,19.64-5.55C143.25,109.86,143,117.37,142.87,118.37Z"></path></svg> 