<?xml version="1.0" encoding="UTF-8"?> <!-- Generator: Adobe Illustrator 23.0.0, SVG Export Plug-In . SVG Version: 6.00 Build 0) --> <svg xmlns="http://www.w3.org/2000/svg" xmlns:xlink="http://www.w3.org/1999/xlink" id="Layer_1" x="0px" y="0px" viewBox="0 0 42 42" style="enable-background:new 0 0 42 42;" xml:space="preserve"> <style type="text/css"> .st0{fill:#3789EF;fill-opacity:0;} .st1{fill:#3789EF;} </style> <title>S2</title> <rect class="st0" width="42" height="42"></rect> <path class="st1" d="M41.1,37.5v-0.2C41,37.2,40.9,37,40.7,37c-0.1,0-0.3,0-0.5,0h-0.5V13.9c0.1-1.1-0.8-2.2-1.9-2.2c0,0,0,0,0,0 c-0.2,0-0.4,0-0.5,0h-0.2V3.2c0.1-1.2-0.7-2.2-1.9-2.3c-0.1,0-0.3,0-0.4,0H7.3C6.1,0.8,5.1,1.6,4.9,2.8c0,0.2,0,0.3,0,0.5v8.3H4.9 H4.7c-1.2-0.2-2.2,0.7-2.4,1.8c0,0.2,0,0.4,0,0.6v23H1.4c-0.1,0-0.2,0-0.3,0.1c-0.1,0.1-0.1,0.2-0.1,0.3v0.8c0,0.3,0,0.5,0,0.8 c0,0.7,0.3,1.4,0.9,1.7c0.4,0.2,0.9,0.4,1.4,0.4h15.4h20.2c1.1,0.1,2.1-0.7,2.2-1.8c0,0,0-0.1,0-0.1C41.1,38.6,41.1,38.1,41.1,37.5z M2.3,39.1c0-0.4-0.1-0.6,0-0.7s0.3-0.1,0.7-0.1h36.2h0.2c0.1,0,0.2,0,0.3,0c0.1,0.1,0.1,0.1,0.1,0.2c0,0.9-0.2,1.1-0.5,1.2H2.9 C2.5,39.7,2.3,39.5,2.3,39.1z M6.3,7.7h29.3v0.1c0,0.1,0,0.2,0,0.3v25.3c0,0.8-0.1,0.9-0.9,0.9H7.2c-0.7,0-0.9-0.1-0.9-0.9V7.7z M35.7,5.9c0,0.2,0,0.3-0.1,0.3s-0.2,0.1-0.3,0.1H6.8c-0.5,0-0.5,0-0.5-0.5V3.1c0-0.6,0.2-0.8,0.8-0.8h27.7c0.4,0,0.6,0,0.7,0.2 s0.2,0.3,0.2,0.7c0,0.3,0,0.5,0,0.7C35.7,4.6,35.7,5.3,35.7,5.9z M7.3,35.7h27.4c1.2,0.2,2.2-0.7,2.4-1.8c0-0.2,0-0.4,0-0.5V13h0.2 c0.2,0,0.4,0,0.5,0c0.3,0,0.5,0.2,0.5,0.5c0,0.1,0,0.2,0,0.2V37H3.7V14c0-0.5,0-0.7,0.2-0.8S4.2,13,4.6,13h0.4v20.3 c-0.2,1.2,0.7,2.2,1.8,2.4C6.9,35.8,7.1,35.8,7.3,35.7z"></path> <path class="st1" d="M21.5,17.7h1.7l0.7,1.3l-0.8,1.3l1,0.6l2.4,1.4h0.1l0.2-0.3l0.4-0.6l0.1-0.2c0.2-0.3,0.2-0.3,0.8-0.2l0.6,0.1 l0.9,1l0.3,0.3l3.5-2v-0.1l-0.2-0.4c-0.2-0.3-0.3-0.6-0.5-0.9c0-0.1,0-0.3,0-0.4c0.2-0.8,0.9-1.3,1.7-1.1c0,0,0.1,0,0.1,0h0.1 c0.1,0,0.2,0,0.3-0.1c0.1-0.1,0.1-0.2,0.1-0.4c0-0.6,0-1.3,0-1.9c0-0.3,0-0.6,0-0.8c0-0.5,0-0.7-0.1-0.8s-0.4-0.1-0.8-0.1 c-0.6,0.1-1,0-1.2-0.7c0-0.1-0.1-0.1-0.1-0.2c0,0-0.1-0.1-0.1-0.1c0-0.2,0-0.3,0-0.5c0.1-0.3,0.3-0.6,0.5-0.9l0.2-0.4v-0.1l-3.5-2 v0.1l-0.2,0.3c-0.1,0.2-0.3,0.4-0.4,0.6c-0.2,0.4-0.4,0.6-0.8,0.4c-0.2,0-0.4,0-0.5,0c-0.3,0.1-0.4,0-0.6-0.3S27.2,9.4,27,9.1 s-0.1-0.2-0.2-0.3V8.7l-3.4,2h-0.1l0.2,0.4c0.2,0.3,0.3,0.6,0.5,0.9c0,0.4-0.1,0.7-0.3,1c-0.2,0.4-0.3,0.5-0.4,0.5 c-0.4,0-0.7,0-1.1,0h-0.6L21.5,17.7z M32.7,16.3L32.7,16.3c-0.2,0-0.4,0.1-0.5,0.3c-0.2,0.8-0.7,1.5-1.3,2h0l0.2,0.3 c0.1,0.2,0.3,0.5,0.4,0.7c0,0.1,0.1,0.1,0.1,0.2c-0.4,0.2-0.8,0.5-1.2,0.6c-0.1,0-0.1-0.1-0.2-0.2c0-0.1-0.1-0.1-0.1-0.2l-0.1,0 c-0.3-0.6-0.4-0.6-0.9-0.5h-0.1c-0.6,0-1.1,0-1.7-0.1c-0.2,0-0.4,0-0.5,0.3c0,0,0,0.1,0,0.1c0,0-0.1,0.1-0.1,0.1 c-0.2,0.4-0.3,0.6-0.4,0.6s-0.2,0-0.4-0.2l-0.4-0.2C25.1,20,25,20,25,19.9s0.1-0.2,0.2-0.5s0.2-0.3,0.3-0.5l0.1-0.2v-0.1l0,0 c-0.6-0.6-1.1-1.3-1.3-2.1c0-0.1-0.3-0.2-0.5-0.3c-0.9,0-0.9,0-0.9-0.9v-0.1c0-0.1,0-0.3,0.1-0.4c0.1,0,0.1-0.1,0.2-0.1h0.5 c0.5,0,0.5,0,0.6-0.4c0-0.1,0.1-0.2,0.1-0.4c0.2-0.4,0.4-0.8,0.6-1.2l0.4-0.6l0,0l-0.1-0.2c-0.1-0.2-0.2-0.4-0.3-0.6 s-0.1-0.2-0.1-0.3s0.1-0.1,0.2-0.2c0.2-0.1,0.5-0.2,0.7-0.4c0.1-0.1,0.2-0.1,0.3-0.1c0.1,0,0.2,0.1,0.2,0.2c0.1,0.5,0.6,0.9,1.1,0.8 c0.1,0,0.2-0.1,0.3-0.1c0.4-0.1,0.8-0.1,1.2,0h0.3c0.2,0.1,0.4,0,0.5-0.2c0.3-0.5,0.5-0.7,0.7-0.8h0.1c0.2,0,0.5,0.2,0.9,0.5 c0,0.1,0,0.2,0,0.3c-0.1,0.2-0.2,0.5-0.4,0.7l-0.1,0.2l0,0l0,0c0.1,0.1,0.2,0.3,0.3,0.4c0.2,0.3,0.4,0.6,0.6,0.9 c0.3,0.7,0.6,1.4,1.6,1.2c0.1,0,0.1,0.1,0.2,0.2c0,0,0,0.1,0,0.1v0.1C33.6,16.2,33.6,16.2,32.7,16.3z"></path> <path class="st1" d="M28.2,12.9L28.2,12.9c-0.7,0-1.4,0.3-1.8,0.8c-0.5,0.5-0.8,1.2-0.8,1.9c0.1,1.4,1.2,2.6,2.6,2.6l0,0 c1.4-0.1,2.6-1.2,2.6-2.6c0-0.7-0.3-1.4-0.8-1.9C29.6,13.2,28.9,12.9,28.2,12.9z M28.2,16.9L28.2,16.9c-0.3,0-0.7-0.1-0.9-0.4 c-0.2-0.3-0.4-0.6-0.4-0.9c0-0.7,0.5-1.3,1.2-1.3c0,0,0,0,0.1,0l0,0c0.7,0.1,1.2,0.7,1.2,1.4C29.4,16.3,28.9,16.8,28.2,16.9z"></path> <path class="st1" d="M23.2,10.7L23.2,10.7 M21.8,19.5c0.7,0.7,1.1,1.7,1.1,2.8l0,0c0,2.2-1.7,3.9-3.9,3.9c0,0-0.1,0-0.1,0l0,0 c-1.1,0-2.1-0.4-2.8-1.1c-0.7-0.8-1.2-1.8-1.1-2.9c0-2.2,1.8-3.9,3.9-3.9c0,0,0,0,0.1,0l0,0C20,18.2,21,18.7,21.8,19.5L21.8,19.5z M21,17.3c-1.6-0.7-3.4-0.7-4.9,0.2c-1.5,0.8-2.6,2.4-2.8,4.1c-0.3,2.9,1.6,5.5,4.4,6.1c1.5,0.3,3.1-0.1,4.3-1 c1.2-0.9,2-2.2,2.2-3.7c0-0.4,0-0.8,0-1.2c0-0.2,0-0.4,0-0.6C23.9,19.4,22.7,17.9,21,17.3z M21.6,13.5v-1.6c0-0.1,0-0.2-0.1-0.3 c-0.1-0.1-0.2-0.1-0.3-0.1h-4.7c-0.2,0-0.3,0.1-0.4,0.3c0,0,0,0.1,0,0.1c0,0.1,0,0.3,0,0.4c0,0.2,0,0.5,0,0.7 c0.1,0.8-0.1,1.2-0.9,1.4c-0.3,0.1-0.5,0.1-0.7-0.1s-0.6-0.7-0.9-1l-0.3-0.3l-0.1-0.1l-3.9,3.9l0.1,0L9.8,17 c0.2,0.2,0.4,0.4,0.6,0.6c0.8,0.8,0.8,0.8,0.4,1.7l0,0c0,0.2-0.2,0.3-0.4,0.3H8.6c-0.1,0-0.2,0-0.3,0.1c-0.1,0.1-0.1,0.2-0.1,0.3 c0,1.4,0,2.9,0,4.6c0,0.1,0,0.2,0.1,0.3c0.1,0.1,0.2,0.1,0.3,0.1h1.8c0.2,0,0.4,0.1,0.4,0.3c0,0,0,0,0,0c0,0.1,0.1,0.3,0.1,0.4 c0,0.1,0.1,0.2,0.1,0.3c0.1,0.3,0.1,0.3-0.2,0.6l-0.2,0.2l-1,1l-0.2,0.2l3.8,3.8l0.1,0l0.1,0l0.2-0.3c0.2-0.2,0.4-0.4,0.6-0.6 c0.7-0.7,0.7-0.7,1.7-0.4l0,0c0.2,0,0.3,0.2,0.3,0.4c0,0.3,0,0.7,0,1c0,0.3,0,0.5,0,0.8c0,0.1,0,0.2,0.1,0.3 c0.1,0.1,0.2,0.1,0.3,0.1h4.6c0.2,0,0.4-0.1,0.4-0.3c0,0,0-0.1,0-0.1c0-0.1,0-0.3,0-0.4c0-0.2,0-0.4,0-0.6c-0.1-0.8,0.1-1.2,0.8-1.3 c0.3-0.1,0.5-0.1,0.7,0.1s0.6,0.7,1,1l0.4,0.4l0,0l3.8-3.8l0-0.1l-0.1,0L28,27.5c-0.2-0.2-0.4-0.4-0.7-0.5c-0.5-0.3-0.7-0.9-0.5-1.5 c0-0.1,0.1-0.1,0.1-0.2c0.1-0.2,0.3-0.3,0.5-0.3h0.8c0.3,0,0.5,0,0.8,0c0.1,0,0.3,0,0.4-0.1c0.1-0.1,0.1-0.2,0.1-0.4 c0-0.3,0-0.6,0-0.9V22l-0.8-1l0,0l-0.6,0v2.6h-0.4c-0.4,0-0.8,0-1.2,0c-0.3,0-0.5,0.2-0.6,0.4c-0.3,0.8-0.6,1.5-0.9,2.1 c-0.1,0.2-0.1,0.4,0.1,0.6c0.2,0.2,0.3,0.3,0.5,0.5s0.4,0.4,0.5,0.5s0.1,0.1,0.1,0.2s0,0.1-0.1,0.2c-0.5,0.5-1,1-1.5,1.5 c0,0.1-0.1,0.1-0.2,0.1l0,0c-0.1,0-0.1-0.1-0.2-0.1c-0.2-0.2-0.4-0.4-0.5-0.5l-0.5-0.5c-0.1-0.2-0.4-0.2-0.5-0.1 c-0.9,0.4-1.6,0.7-2.2,0.9c-0.2,0.1-0.4,0.3-0.4,0.5c0,0.4,0,0.8,0,1.2v0.4h-2.6v-0.4c0-0.4,0-0.8,0-1.1s-0.2-0.6-0.5-0.7 c-0.7-0.2-1.4-0.5-2.1-0.9c-0.2-0.1-0.5-0.1-0.6,0.1l-0.5,0.5l-0.5,0.5c-0.1,0.1-0.1,0.1-0.2,0.1l0,0c-0.1,0-0.1,0-0.2-0.1 c-0.4-0.4-0.9-0.9-1.5-1.5c-0.1,0-0.1-0.1-0.1-0.2c0-0.1,0-0.1,0.1-0.2c0.2-0.2,0.3-0.3,0.5-0.5l0.5-0.5c0.2-0.1,0.2-0.4,0.1-0.6 c-0.3-0.7-0.6-1.5-0.9-2.2c-0.1-0.2-0.2-0.4-0.5-0.4H9.6V21h1.7c0.3,0,0.4-0.1,0.5-0.4c0.3-0.7,0.6-1.4,0.9-2.1 c0.1-0.2,0.1-0.5-0.1-0.7c-0.2-0.2-0.4-0.4-0.6-0.6s-0.3-0.3-0.4-0.5s-0.1-0.1-0.1-0.2s0-0.1,0.1-0.1c0.5-0.5,1.1-1,1.6-1.6 c0.1,0,0.1-0.1,0.1-0.1l0,0c0,0,0.1,0,0.2,0.1l0.1,0.1c0.3,0.3,0.7,0.7,1,1c0.2,0.1,0.4,0.1,0.5,0c0.4-0.1,0.7-0.3,1-0.4l1.2-0.5 c0.2,0,0.4-0.3,0.4-0.5c0-0.4,0-0.8,0-1.2V13h2.6v0.4c0,0.4,0,0.8,0,1.2c-0.1,0.3,0.1,0.5,0.4,0.6c0,0,0,0,0.1,0h1L21.6,13.5z M29,19.5h-0.1"></path> <circle class="st1" cx="8.3" cy="4.3" r="0.6"></circle> <circle class="st1" cx="11" cy="4.3" r="0.6"></circle> <circle class="st1" cx="13.6" cy="4.3" r="0.6"></circle> </svg> 