<?xml version="1.0" encoding="UTF-8"?> <!-- Generator: Adobe Illustrator 23.0.0, SVG Export Plug-In . SVG Version: 6.00 Build 0) --> <svg xmlns="http://www.w3.org/2000/svg" xmlns:xlink="http://www.w3.org/1999/xlink" id="Layer_1" x="0px" y="0px" viewBox="0 0 120 60" style="enable-background:new 0 0 120 60;" xml:space="preserve"> <style type="text/css"> .st0{fill-rule:evenodd;clip-rule:evenodd;fill:#00D8FF;} .st1{fill:none;stroke:#00D8FF;stroke-width:24;} .st2{fill-rule:evenodd;clip-rule:evenodd;fill:#333333;} </style> <g transform="matrix(.06928 0 0 .06928 7.367398 13.505331)"> <circle class="st0" cx="269.5" cy="237.6" r="50.2"></circle> <g> <path class="st1" d="M269.5,135.6c67.4,0,129.9,9.7,177.1,25.9c56.8,19.6,91.8,49.2,91.8,76.1c0,28-37,59.5-98.1,79.7 c-46.1,15.3-106.9,23.3-170.8,23.3c-65.6,0-127.6-7.5-174.3-23.4c-59-20.2-94.6-52.1-94.6-79.6C0.6,211,34,181.6,90,162 C137.4,145.5,201.5,135.6,269.5,135.6L269.5,135.6z"></path> <path class="st1" d="M180.7,186.9C214.4,128.6,254,79.2,291.7,46.4C337,7,380.2-8.5,403.4,4.9c24.2,14,33,61.8,20.1,124.8 c-9.8,47.6-33.2,104.2-65.2,159.6c-32.8,56.8-70.3,106.8-107.4,139.3c-47,41.1-92.4,55.9-116.2,42.2 c-23.1-13.3-31.9-56.9-20.8-115.2C123.3,306.3,146.8,245.8,180.7,186.9L180.7,186.9z"></path> <path class="st1" d="M180.8,289.5c-33.7-58.3-56.7-117.3-66.3-166.3c-11.5-59-3.4-104.1,19.9-117.6c24.2-14,70.1,2.2,118.1,44.9 c36.4,32.3,73.7,80.8,105.7,136.2c32.8,56.7,57.5,114.2,67,162.6c12.1,61.2,2.3,108-21.5,121.7c-23.1,13.3-65.3-0.8-110.2-39.5 C255.6,398.9,214.9,348.3,180.8,289.5L180.8,289.5z"></path> </g> </g> <path class="st2" d="M64.6,38.8l-4.3-6.4c2.2-0.2,4.1-1.8,4.1-4.6c0-2.9-2.1-4.8-4.9-4.8h-6.3v15.8h2v-6.3h3.1l4,6.3L64.6,38.8z M59.3,30.9h-4.1v-6h4.1c1.9,0,3.1,1.2,3.1,3S61.1,30.9,59.3,30.9L59.3,30.9z M71.9,39.1c1.9,0,3.4-0.6,4.5-1.8l-0.9-1.2 c-0.9,0.9-2.2,1.4-3.5,1.4c-2.5,0-4-1.8-4.1-4h9.3v-0.5c0-3.4-2-6.1-5.5-6.1c-3.3,0-5.6,2.7-5.6,6C66.1,36.7,68.5,39.1,71.9,39.1 L71.9,39.1z M75.5,32.4H68c0.1-1.8,1.3-3.8,3.7-3.8C74.3,28.6,75.5,30.7,75.5,32.4z M89,38.8V31c0-2.8-2-3.9-4.4-3.9 c-1.9,0-3.3,0.6-4.6,1.9l0.8,1.2c1-1.1,2.1-1.6,3.5-1.6c1.7,0,2.9,0.9,2.9,2.4v2.1c-0.9-1.1-2.2-1.6-3.8-1.6c-1.9,0-4,1.2-4,3.8 c0,2.5,2.1,3.8,4,3.8c1.5,0,2.8-0.5,3.8-1.6v1.3L89,38.8z M84.1,37.9c-1.7,0-2.8-1-2.8-2.5c0-1.5,1.2-2.5,2.8-2.5 c1.3,0,2.5,0.5,3.1,1.4v2.2C86.6,37.4,85.3,37.9,84.1,37.9L84.1,37.9z M97.6,39.1c2.1,0,3.3-0.9,4.2-2l-1.2-1.1 c-0.8,1-1.7,1.5-2.9,1.5c-2.4,0-3.9-1.9-3.9-4.4s1.5-4.4,3.9-4.4c1.2,0,2.2,0.5,2.9,1.5l1.2-1.1c-0.9-1.1-2.1-2-4.2-2 c-3.4,0-5.7,2.6-5.7,6C91.9,36.5,94.2,39.1,97.6,39.1L97.6,39.1z M107.2,39.1c1,0,1.7-0.3,2.1-0.7l-0.5-1.3 c-0.2,0.3-0.7,0.5-1.2,0.5c-0.8,0-1.2-0.6-1.2-1.5V29h2.3v-1.6h-2.3v-3.1h-1.8v3.1h-1.9V29h1.9v7.5 C104.6,38.2,105.5,39.1,107.2,39.1L107.2,39.1z"></path> </svg> 