<?xml version="1.0" encoding="UTF-8"?> <!-- Generator: Adobe Illustrator 23.0.0, SVG Export Plug-In . SVG Version: 6.00 Build 0) --> <svg xmlns:cc="http://creativecommons.org/ns#" xmlns:dc="http://purl.org/dc/elements/1.1/" xmlns:inkscape="http://www.inkscape.org/namespaces/inkscape" xmlns:rdf="http://www.w3.org/1999/02/22-rdf-syntax-ns#" xmlns:sodipodi="http://sodipodi.sourceforge.net/DTD/sodipodi-0.dtd" xmlns:svg="http://www.w3.org/2000/svg" xmlns="http://www.w3.org/2000/svg" xmlns:xlink="http://www.w3.org/1999/xlink" id="svg869" inkscape:version="0.92.2 2405546, 2018-03-11" sodipodi:docname="Apache_kafka_wordtype.svg" x="0px" y="0px" viewBox="0 0 644 291" style="enable-background:new 0 0 644 291;" xml:space="preserve"> <style type="text/css"> .st0{fill:#FFFFFF;stroke:#FFFFFF;stroke-width:0.8929;} </style> <g id="g916"> <path id="path879" inkscape:connector-curvature="0" d="M46.3,286.2C36.1,282.6,27.8,275,23.2,265c-3.3-7.2-4.1-19.2-1.8-27.2 c3.1-10.8,13.4-21.8,23.6-25.5l5-1.8v-8.1v-8.1l-5.4-1.7c-10.8-3.4-22.2-13-28-23.7c-7.4-13.5-7.4-33.4,0-46.9 c5.8-10.7,17.2-20.3,28-23.7l5.4-1.7v-8.1v-8.1l-5-1.8C34.8,75.1,24.5,64,21.4,53.2c-2.4-8.1-1.5-20,1.9-27.5 c3.4-7.4,12-16,19.5-19.5c5.1-2.4,6.9-2.7,16.3-2.7s11.1,0.3,16.3,2.7c7.5,3.5,16.1,12.1,19.5,19.5c3.4,7.5,4.2,19.4,1.9,27.5 C93.5,64,83.2,75.1,73,78.7l-5.1,1.8l0.3,7.9l0.3,7.9l5.2,1.3c7,1.8,12,4.5,18.8,10l5.7,4.6l4.1-2.3c2.3-1.3,5.6-3.2,7.5-4.4 l3.3-2.1l0.2-10.5c0.1-9.1,0.5-11.3,2.9-16.3c3.5-7.4,12.1-16,19.5-19.5c5.1-2.4,6.9-2.7,16.3-2.7s11.1,0.3,16.3,2.7 c7.4,3.5,16,12.1,19.5,19.5c2.4,5.1,2.7,6.9,2.7,16.3c0,9.3-0.3,11.1-2.7,16.3c-3.5,7.4-12.1,16-19.5,19.5 c-5.1,2.4-6.9,2.7-16.3,2.7c-11.8,0-16.8-1.6-24.6-8.1l-4.3-3.5l-7.6,4.3l-7.6,4.3l0.8,4c1,5.2,1,20.9,0,25.7l-0.8,3.7l7.7,4.5 l7.7,4.5l4.2-3.4c7.8-6.4,12.7-8,24.5-8c9.3,0,11.1,0.3,16.3,2.7c7.4,3.5,16,12.1,19.5,19.5c2.4,5.1,2.7,6.9,2.7,16.3 s-0.3,11.1-2.7,16.3c-3.5,7.4-12.1,16-19.5,19.5c-5.1,2.4-6.9,2.7-16.3,2.7s-11.1-0.3-16.3-2.7c-7.4-3.5-16-12.1-19.5-19.5 c-2.4-5.1-2.7-6.9-2.7-16.5v-10.7l-7.1-4.1c-3.9-2.2-7.4-4.1-7.8-4.1s-3.1,2-6.2,4.5c-6.7,5.4-11.7,8.1-18.7,9.9l-5.2,1.3l-0.3,7.9 l-0.3,7.9l5.1,1.8c10.3,3.6,20.5,14.7,23.6,25.5c2.4,8.1,1.5,20-1.9,27.5c-3.4,7.5-12,16-19.5,19.5C67.6,288.3,54.1,289,46.3,286.2 L46.3,286.2z M66.3,265.6c11.7-5,14.5-21.1,5.1-29.8C59.8,225,41,233.2,41,249c0,10.2,7.6,17.9,17.8,18 C61.1,267,64.5,266.4,66.3,265.6L66.3,265.6z M159.3,214.6c11.7-5,14.5-21.1,5.1-29.8C152.8,174,134,182.2,134,198 c0,10.2,7.6,17.9,17.8,18C154.1,216,157.5,215.4,159.3,214.6L159.3,214.6z M70.6,172.3c6.6-2.3,14.5-10.2,16.8-16.8 c3.8-11.1,1.3-22.1-6.8-30.1c-11.4-11.4-28.7-11.4-40.1,0c-8.1,8.1-10.5,19-6.8,30.1c2.2,6.3,10.2,14.5,16.4,16.7 C56,174.4,64.5,174.4,70.6,172.3L70.6,172.3z M159.3,109.6c11.7-5,14.5-21.1,5.1-29.8C152.8,69,134,77.2,134,93 c0,10.2,7.6,17.9,17.8,18C154.1,111,157.5,110.4,159.3,109.6z M66.3,58.6c11.7-5,14.5-21.1,5.1-29.8C59.8,18,41,26.2,41,42 c0,10.2,7.6,17.9,17.8,18C61.1,60,64.5,59.4,66.3,58.6z M322.7,215.9c-17-4-28.7-20.9-28.7-41.4c0-22.9,14.1-40.3,34.2-42.2 c8-0.7,15.6,1.3,22.6,6.1l5.1,3.5l0.3-3.7l0.3-3.7l9.3-0.3l9.3-0.3v40.6v40.6l-9.3-0.3l-9.3-0.3l-0.3-3.3c-0.2-1.8-0.5-3.3-0.8-3.3 c-0.2,0-2.3,1.4-4.6,3C343.5,216.4,332.6,218.2,322.7,215.9L322.7,215.9z M342.1,198.9c9.6-3.2,15.2-12.2,15.2-24.3 c0-8.2-1.9-13.5-6.6-18.4c-4.7-4.9-8.4-6.5-15.3-6.6c-8.6-0.1-14.7,3.7-18.9,11.9c-5.9,11.5-3.1,27.1,5.9,34 C328.1,199.9,335.4,201.1,342.1,198.9L342.1,198.9z M545.7,215.6c-14.4-3.9-25.7-18.9-27.3-36.4c-1.8-19,7.1-36.3,22.3-43.8 c4.8-2.3,7-2.8,13.7-2.8c9.3,0,15.3,1.9,22.1,7.1l4.4,3.4v-4.5v-4.5l9.3,0.3l9.3,0.3v40v40l-9.3,0.3l-9.3,0.3v-4v-4l-5.4,3.6 C566.3,216.8,556.3,218.4,545.7,215.6z M566.5,198.9c9.5-2.6,16.4-15,15.1-27.1c-1-9.4-5.2-16.5-11.8-19.9 c-8.5-4.3-17.2-3.3-24.1,2.9c-5.7,5.2-8,10.8-8,19.9C537.8,192.6,550.4,203.3,566.5,198.9z M224,145.5V76h9.5h9.5v41.7v41.7 l12.8-12.7l12.8-12.7h12.2c6.7,0,12.2,0.2,12.2,0.5s-7.7,8.1-17,17.3l-17,16.7l18.6,23l18.6,23l-11.3,0.3 c-6.2,0.2-11.8,0.1-12.5-0.2c-0.7-0.3-7.1-7.9-14.2-17c-9.9-12.6-13.3-16.2-14.1-15.3c-0.6,0.8-1.2,7.7-1.3,16.7l-0.3,15.4 l-9.3,0.3l-9.3,0.3V145.5z M395.7,214.3c-0.4-0.4-0.7-14.5-0.7-31.5V152h-3h-3v-9v-9h3h3l0-15.8c0-28.2,2.5-36,12.9-41.5 c4.4-2.3,6.6-2.8,12.6-2.8c4,0,8.7,0.5,10.4,1.1l3.1,1.1V86v9.8l-4-1.9c-4-1.9-9.6-2.5-11.6-1.1c-3,2-3.7,6.2-4.2,23.5l-0.5,17.8 h10.1H434v9v9h-10h-10v31.5V215h-8.8C400.3,215,396,214.7,395.7,214.3L395.7,214.3z M448,145.5V76h9.5h9.5v41.7v41.7l12.8-12.7 l12.8-12.7h12.2c6.7,0,12.2,0.4,12.2,0.8s-7.6,8.1-17,17.1l-17,16.3l18.5,22.9c10.2,12.6,18.5,23.1,18.5,23.4s-5.4,0.5-12,0.5h-12 l-13.3-16.9c-10.2-13-13.6-16.7-14.5-15.9c-0.9,0.8-1.3,5.3-1.3,16.9V215h-9.5H448V145.5z M613.3,213.5c-3.3-1.4-6.3-6-6.3-9.5 c0-10.2,11.9-15.5,19.3-8.6c5.6,5.2,4.1,15.3-2.8,18.1C619.3,215.3,617.4,215.3,613.3,213.5L613.3,213.5z M623.7,211.1 c3.8-2.3,5.1-6.8,3.3-11.2c-1.2-3-5.4-5.9-8.5-5.9s-7.2,2.9-8.5,5.9C606.4,208.8,615.3,216.2,623.7,211.1z M615,203.5 c0-6.9,0.8-7.8,5.1-5.5c2.3,1.2,2.6,4.8,0.4,5.6c-1.3,0.5-1.2,1,0.6,3.5c2.4,3.4,0.6,4-2.1,0.6l-1.9-2.3l0,2.3c0,1.2-0.5,2.3-1,2.3 C615.4,210,615,207.2,615,203.5z M619.5,201c0-0.7-0.6-1.5-1.3-1.8c-0.7-0.2-1.3,0.5-1.3,1.8s0.5,2,1.3,1.8 C618.9,202.5,619.5,201.7,619.5,201z M257,100.6c0-1.8,11.3-23.7,11.9-23c1.7,1.9,10.4,22.4,9.8,23c-1.1,1.1-3.7-0.6-4.7-3.1 c-0.8-2.2-1.5-2.5-5.9-2.5c-4.5,0-5,0.2-6.1,3c-0.8,1.8-2,3-3.1,3C257.8,101,257,100.8,257,100.6z M271,90.8 c-0.1-2.1-2.6-6.1-3.3-5c-0.3,0.5-1.1,2.2-1.6,3.6c-0.9,2.5-0.8,2.6,2,2.6C269.8,92,271,91.5,271,90.8z M283,89.5V78l4.3,0 c4.9,0,6,0.6,7.7,3.8c1.7,3.3-0.3,8-3.8,8.8c-5,1.1-5.1,1.2-5.1,5.9c0,3.4-0.4,4.5-1.5,4.5C283.3,101,283,99.1,283,89.5L283,89.5z M290.8,86.8c1.7-1.7,1.5-4.5-0.4-5.2c-3.4-1.3-4.4-0.7-4.4,2.9c0,2.7,0.4,3.5,1.8,3.5C288.8,88,290.1,87.5,290.8,86.8z M295,100.3 C295,99,305.3,77,305.9,77c0.5,0,9.7,19.9,10.3,22.5c0.1,0.5-0.5,1.1-1.5,1.3c-1.2,0.2-2.1-0.6-2.8-2.7c-1-2.9-1.4-3.1-5.9-3.1 c-4.4,0-5,0.3-6.4,3C298.1,100.7,295,102.2,295,100.3L295,100.3z M309,91.5c0-0.3-0.7-2-1.6-3.7c-1.7-3.3-2.3-2.9-3.8,2 c-0.6,2-0.3,2.3,2.4,2.3C307.6,92,309,91.8,309,91.5z M324.1,99.7c-8.4-4.3-8.4-16.9,0-21.3c5.2-2.7,11.9-1.2,11.9,2.6 c0,1.7-0.3,1.8-1.9,1c-3-1.6-7.6-1.2-10.2,0.9c-1.8,1.4-2.3,2.9-2.3,6c0,6.8,4.5,9.7,11.7,7.7c2.2-0.6,2.8-0.4,2.8,0.8 C336,100.7,328.8,102.1,324.1,99.7L324.1,99.7z M340.7,100.3c-0.4-0.4-0.7-5.5-0.7-11.5c0-10.2,0.1-10.8,2-10.8c1.7,0,2,0.7,2,4v4 h5h5v-4c0-2.9,0.4-4,1.5-4c1.2,0,1.5,1.9,1.5,11.5s-0.3,11.5-1.5,11.5c-1.2,0-1.5-1.3-1.5-5.5V90h-5h-5v5.5c0,3.9-0.4,5.5-1.3,5.5 C341.9,101,341,100.7,340.7,100.3L340.7,100.3z M362.7,100.3c-0.4-0.4-0.7-5.5-0.7-11.5V78h6.5c5.1,0,6.5,0.3,6.5,1.5 c0,1.1-1.2,1.5-4.5,1.5c-4.1,0-4.5,0.2-4.5,2.5c0,2.3,0.4,2.5,4.5,2.5c3.8,0,4.5,0.3,4.5,2c0,1.7-0.7,2-4.5,2c-4.5,0-4.5,0-4.5,3.5 c0,3.5,0,3.5,4.5,3.5c3.8,0,4.5,0.3,4.5,2c0,1.8-0.7,2-5.8,2C366,101,363,100.7,362.7,100.3L362.7,100.3z"></path> <path id="path900" inkscape:connector-curvature="0" class="st0" d="M51.7,58c-5.9-2.6-10.2-9.5-10.2-16.2 C41.3,29.8,55.6,20.7,66,26c7.1,3.6,10.2,8.7,10.2,16.4c0,10-7.1,16.9-17.2,16.8C56.5,59.2,53.1,58.6,51.7,58z"></path> <path id="path902" inkscape:connector-curvature="0" class="st0" d="M52.6,172.6c-7.6-1.8-17-11.6-19.3-19.9 c-3.4-12.5,3.5-26.8,15.7-32.8c6.5-3.2,16.9-3.1,23.2,0.2c5.7,3,10.7,8,13.7,13.7c3.1,6.1,3.4,16.7,0.5,22.9 c-2.5,5.4-9.1,12-14.4,14.3C67.2,173.2,58,173.9,52.6,172.6L52.6,172.6z"></path> <path id="path904" inkscape:connector-curvature="0" class="st0" d="M51.7,264.9c-8.7-4.6-12.4-14-8.9-22.4 c4.3-10.4,17-14.2,26.2-7.9c10.5,7.2,9.4,24.4-1.9,29.9C62.4,266.8,55.5,266.9,51.7,264.9L51.7,264.9z"></path> <path id="path906" inkscape:connector-curvature="0" class="st0" d="M144.5,213.9c-10.3-4.8-13.4-18.3-6.1-27 c6.3-7.5,18.2-8.4,25.6-1.9c5.2,4.6,6.8,14.6,3.4,21.3C163.4,214.2,152.7,217.7,144.5,213.9L144.5,213.9z"></path> <path id="path908" inkscape:connector-curvature="0" class="st0" d="M144.5,108.9c-6.1-2.7-11-11.6-10-18.1 c2.3-14.1,18.2-20.1,28.8-10.9c3.6,3.2,4.9,5.2,5.8,9.6c1.6,7.1-3.1,16.7-9.6,19.4C155.9,110.5,148.1,110.4,144.5,108.9 L144.5,108.9z"></path> </g> </svg> 