<?xml version="1.0" encoding="UTF-8"?> <!-- Generator: Adobe Illustrator 17.0.0, SVG Export Plug-In . SVG Version: 6.00 Build 0) --> <svg xmlns="http://www.w3.org/2000/svg" xmlns:xlink="http://www.w3.org/1999/xlink" id="Layer_1" x="0px" y="0px" width="1572.199px" height="457.367px" viewBox="0 0 1572.199 457.367" xml:space="preserve"> <g transform="translate(-5.414892 2.707447)"> <path fill="#00BFB3" d="M234.098,283.147h157.22V454.66h-157.22L234.098,283.147z"></path> <path fill="#FEC514" d="M19.708-2.707H5.415v285.854H191.22V168.805C191.22,74.081,114.431-2.707,19.708-2.707z"></path> <path fill="#343741" d="M5.415,283.147c0,94.724,76.789,171.513,171.513,171.513l0,0h14.293V283.147H5.415z"></path> <path d="M547.752,291.58h-31.515V83.049h31.515V291.58z"></path> <path d="M724.196,217.257c0,24.155-6.217,42.878-18.581,56.671c-13.502,14.022-32.447,21.46-51.883,20.367 c-12.864,0.243-25.554-2.992-36.732-9.362c-10.672-6.339-19.207-15.72-24.512-26.942c-5.939-12.743-8.873-26.679-8.576-40.734 c0-24.083,6.146-42.878,18.509-56.313c13.577-14.028,32.611-21.417,52.097-20.224c19.337-0.95,38.102,6.718,51.239,20.939 C718.721,177.189,725.31,197.059,724.196,217.257z M616.357,217.257c0,34.16,12.625,51.263,37.876,51.311 c25.251,0.048,37.661-17.056,37.233-51.311c0-33.874-12.578-50.811-37.733-50.811c-11.164-0.868-21.98,4.108-28.585,13.149 C618.569,191.009,615.511,204.112,616.357,217.257z"></path> <path d="M885.561,143.436v17.223l-25.37,4.717c2.533,3.501,4.487,7.385,5.789,11.506c1.506,4.615,2.277,9.438,2.287,14.293 c0.554,13.714-5.279,26.91-15.793,35.732c-12.515,9.407-27.963,14.067-43.593,13.149c-4.312,0.035-8.617-0.324-12.863-1.072 c-6.065,2.846-9.996,8.881-10.148,15.579c-0.083,3.259,1.767,6.259,4.717,7.647c5.579,2.123,11.555,3.002,17.509,2.573h25.87 c13.246-0.952,26.41,2.737,37.233,10.434c8.741,7.497,13.452,18.665,12.721,30.158c0.38,15.653-7.596,30.326-20.939,38.519 c-13.864,9.1-33.874,13.65-60.029,13.65c-16.129,1.022-32.203-2.704-46.237-10.72c-10.368-6.641-16.434-18.284-15.936-30.586 c-0.225-8.469,2.85-16.695,8.576-22.94c6.593-6.648,15.035-11.155,24.226-12.935c-4.232-1.797-7.837-4.805-10.362-8.647 c-5.74-8.003-5.507-18.835,0.572-26.584c3.987-4.55,8.695-8.413,13.935-11.434c-7.746-3.341-14.281-8.979-18.724-16.151 c-4.856-7.846-7.338-16.93-7.146-26.156c-0.823-14.117,4.771-27.85,15.222-37.375c12.346-9.589,27.78-14.318,43.378-13.292 c4.397,0.015,8.788,0.301,13.149,0.858c3.516,0.381,7.002,1.001,10.434,1.858L885.561,143.436z M769.075,314.948 c-0.151,6.545,3.421,12.61,9.219,15.651c7.96,4.086,16.863,5.985,25.798,5.503c13.168,0.908,26.35-1.552,38.305-7.146 c7.559-3.622,12.427-11.2,12.578-19.581c0.424-5.561-2.347-10.88-7.146-13.721c-8.111-3.362-16.902-4.758-25.655-4.073h-23.512 c-7.662-0.385-15.226,1.859-21.439,6.36c-5.196,3.981-8.214,10.177-8.147,16.722V314.948z M782.653,191.673 c-0.525,7.807,2.042,15.508,7.146,21.439c5.503,5.28,12.972,8.003,20.582,7.504c18.247,0,27.347-9.743,27.299-29.229 c0.536-8.001-1.851-15.924-6.718-22.297c-5.346-5.557-12.892-8.439-20.582-7.861c-7.715-0.56-15.288,2.287-20.724,7.79 c-5.04,6.323-7.538,14.3-7.003,22.368V191.673z"></path> <path d="M1012.551,249.416c0.667,13.049-5.267,25.561-15.793,33.302c-13.508,8.532-29.363,12.583-45.308,11.577 c-16.322,0.686-32.583-2.395-47.523-9.004v-27.156c15.141,7.465,31.72,11.561,48.595,12.006c19.39,0,29.086-5.836,29.086-17.509 c0.095-3.428-1.047-6.776-3.216-9.433c-3.039-3.181-6.62-5.794-10.577-7.718c-6.64-3.473-13.49-6.528-20.51-9.147 c-12.695-4.122-24.381-10.867-34.303-19.795c-6.171-7.115-9.392-16.317-9.004-25.727c-0.452-11.863,5.354-23.094,15.293-29.586 c12.563-7.624,27.132-11.285,41.806-10.505c17.032-0.089,33.88,3.52,49.381,10.577l-10.148,23.726 c-12.69-5.818-26.365-9.188-40.305-9.933c-16.651,0-24.941,4.788-24.941,14.293c0.064,4.769,2.504,9.192,6.503,11.791 c9.009,5.471,18.596,9.929,28.585,13.292c9.366,3.272,18.313,7.638,26.656,13.006c5.148,3.472,9.388,8.128,12.363,13.578 C1011.75,236.82,1012.901,243.115,1012.551,249.416L1012.551,249.416z"></path> <path d="M1101.809,268.854c7.812-0.022,15.574-1.252,23.011-3.645v23.726c-4.321,1.766-8.828,3.036-13.435,3.788 c-5.63,1.071-11.349,1.597-17.08,1.572c-29.872,0-44.784-15.722-44.736-47.166v-79.896h-20.224V152.94l21.439-11.506l10.719-31.373 h19.438v33.016h42.235v23.797h-42.235V246.2c-0.511,6.171,1.559,12.277,5.717,16.865 C1090.726,266.952,1096.187,269.038,1101.809,268.854z"></path> <path d="M1247.166,291.58l-6.289-20.582h-1.072c-5.579,7.745-12.93,14.042-21.439,18.366c-8.838,3.592-18.337,5.272-27.871,4.931 c-12.621,0.857-25.058-3.391-34.517-11.792c-8.56-8.927-12.991-21.03-12.22-33.373c-0.789-13.715,5.665-26.84,17.008-34.588 c11.291-7.766,28.562-12.006,51.811-12.721l25.584-0.786v-7.932c0.631-7.724-1.722-15.396-6.575-21.439 c-5.553-5.166-13.022-7.759-20.582-7.146c-7.415-0.036-14.791,1.073-21.868,3.287c-6.752,2.328-13.361,5.048-19.795,8.147 l-10.219-22.511c8.37-4.304,17.256-7.522,26.442-9.576c8.874-2.121,17.961-3.224,27.085-3.287c18.771,0,33.064,4.121,42.878,12.363 c9.814,8.242,14.579,21.129,14.293,38.662v100.049L1247.166,291.58z M1200.286,270.141c10.068,0.51,19.938-2.925,27.513-9.576 c7.222-7.012,11.031-16.822,10.434-26.87v-12.863l-19.081,0.858c-11.206-0.475-22.342,1.988-32.302,7.146 c-6.794,4.441-10.672,12.196-10.148,20.296c-0.337,5.717,1.828,11.298,5.931,15.293 C1187.572,268.515,1193.888,270.561,1200.286,270.141z"></path> <path d="M1413.248,249.416c0.693,13.055-5.246,25.578-15.794,33.302c-13.504,8.541-29.362,12.593-45.308,11.577 c-16.322,0.686-32.583-2.395-47.523-9.004v-27.156c15.143,7.459,31.721,11.555,48.595,12.006c19.438,0,29.086-5.86,29.086-17.509 c0.095-3.428-1.047-6.776-3.216-9.433c-3.039-3.181-6.62-5.794-10.577-7.718c-6.64-3.473-13.49-6.528-20.51-9.147 c-12.878-4.046-24.743-10.795-34.803-19.795c-6.222-7.089-9.473-16.303-9.076-25.727c-0.422-11.874,5.409-23.101,15.365-29.586 c12.537-7.622,27.083-11.284,41.735-10.505c17.055-0.088,33.926,3.52,49.453,10.577l-10.219,23.726 c-12.69-5.818-26.365-9.188-40.305-9.933c-16.651,0-24.941,4.788-24.941,14.293c0.064,4.769,2.504,9.192,6.503,11.791 c9.035,5.49,18.644,9.971,28.657,13.364c9.353,3.303,18.297,7.667,26.656,13.006c5.128,3.474,9.344,8.131,12.292,13.578 C1412.092,236.811,1413.441,243.089,1413.248,249.416z"></path> <path d="M1577.614,291.58h-31.587v-91.116c0.6-9.093-1.921-18.118-7.146-25.584c-5.612-6.057-13.715-9.172-21.939-8.433 c-11.037-0.942-21.856,3.471-29.086,11.863c-6.241,7.909-9.362,21.153-9.362,39.734v73.536h-31.444V83.049h31.444v52.883 c-0.022,9.098-0.547,18.188-1.573,27.228h2.001c4.255-7.115,10.453-12.867,17.866-16.58c8.305-4.091,17.471-6.125,26.727-5.931 c35.922,0,53.883,18.08,53.883,54.241L1577.614,291.58z"></path> </g> </svg> 