<?xml version="1.0" encoding="UTF-8"?> <!-- Generator: Adobe Illustrator 17.0.0, SVG Export Plug-In . SVG Version: 6.00 Build 0) --> <svg xmlns="http://www.w3.org/2000/svg" xmlns:xlink="http://www.w3.org/1999/xlink" id="Layer_1" x="0px" y="0px" width="876px" height="205.92px" viewBox="362 497.04 876 205.92" xml:space="preserve"> <g> <path d="M375.2,665.52L375.2,665.52c-7.2,0-13.2-5.76-13.2-13.2v-34.56c0-7.2,5.76-13.2,13.2-13.2l0,0c7.2,0,13.2,5.76,13.2,13.2 v34.56C388.16,659.76,382.4,665.52,375.2,665.52z M427.04,664.32v-60c0-7.2-5.76-13.2-13.2-13.2l0,0c-7.2,0-13.2,5.76-13.2,13.2v60 c0,7.2,5.76,13.2,13.2,13.2l0,0C421.04,677.28,427.04,671.52,427.04,664.32z M465.68,677.52v-85.68c0-7.2-5.76-13.2-13.2-13.2l0,0 c-7.2,0-13.2,5.76-13.2,13.2v85.68c0,7.2,5.76,13.2,13.2,13.2l0,0C459.92,690.72,465.68,684.72,465.68,677.52z M504.56,689.76 v-111.6c0-7.2-5.76-13.2-13.2-13.2l0,0c-7.2,0-13.2,5.76-13.2,13.2v111.6c0,7.2,5.76,13.2,13.2,13.2l0,0 C498.56,702.96,504.56,696.96,504.56,689.76z M561.92,548.64l-174.96-51.12c-1.2-0.48-2.64-0.48-3.84-0.48 c-7.44,0-13.92,6-13.92,13.92v82.56h10.32v-82.56c0-2.16,1.68-3.36,3.36-3.36c0.24,0,0.72,0,0.96,0.24l174.96,51.12 c1.44,0.48,2.4,1.68,2.4,3.36v110.16c0,2.16-1.68,3.36-3.36,3.36c-0.24,0-0.72,0-0.96-0.24l-39.84-11.76v10.8l36.96,10.8 c1.2,0.48,2.64,0.48,3.84,0.48c7.44,0,13.92-6,13.92-13.92V561.84C572,555.84,567.92,550.56,561.92,548.64z M673.52,546.72 c6.96-1.2,15.84-2.16,27.36-2.16c14.16,0,24.48,3.36,30.96,9.12c6,5.28,9.6,13.2,9.6,23.04c0,10.08-2.88,17.76-8.64,23.52 c-7.44,7.92-19.92,12.24-33.84,12.24c-4.32,0-8.16-0.24-11.52-0.96v44.16h-14.16V546.72H673.52z M687.68,600 c3.12,0.72,6.96,1.2,11.76,1.2c17.28,0,27.6-8.4,27.6-23.52c0-14.64-10.32-21.6-26.16-21.6c-6.24,0-11.04,0.48-13.44,1.2V600 H687.68z M827.84,615.6c0,29.28-20.4,42.24-39.6,42.24c-21.36,0-37.92-15.84-37.92-40.8c0-26.64,17.28-42.24,39.36-42.24 C812.48,574.8,827.84,591.36,827.84,615.6z M764.96,616.56c0,17.28,10.08,30.48,24,30.48c13.68,0,24-12.96,24-30.72 c0-13.44-6.72-30.48-23.76-30.48C772.4,585.6,764.96,601.44,764.96,616.56z M850.64,576.72l10.56,40.32c2.4,8.88,4.32,17.04,6,25.2 h0.48c1.92-7.92,4.32-16.56,6.96-24.96l12.96-40.56h12.24l12.24,39.6c2.88,9.6,5.28,17.76,6.96,25.92h0.48 c1.2-7.92,3.36-16.32,6-25.68l11.28-39.84h14.16l-25.68,79.44h-13.2l-12.24-37.92c-2.88-8.88-5.04-16.8-6.96-26.16h-0.24 c-1.92,9.6-4.32,17.76-7.2,26.16l-12.72,37.68h-13.2l-24-79.44h15.12V576.72z M972.08,618.96c0.24,19.44,12.72,27.6,27.12,27.6 c10.32,0,16.56-1.92,22.08-4.08l2.4,10.32c-5.04,2.4-13.68,4.8-26.4,4.8c-24.48,0-39.12-16.08-39.12-40.08s14.16-42.72,37.2-42.72 c25.92,0,32.88,22.8,32.88,37.44c0,2.88-0.24,5.28-0.48,6.72L972.08,618.96L972.08,618.96z M1014.32,608.64 c0.24-9.12-3.84-23.52-19.92-23.52c-14.64,0-20.88,13.44-22.08,23.52H1014.32z M1046,601.44c0-9.36-0.24-17.28-0.72-24.72H1058 l0.48,15.6h0.72c3.6-10.56,12.24-17.28,22.08-17.28c1.68,0,2.88,0.24,4.08,0.48v13.68c-1.44-0.24-2.88-0.48-4.8-0.48 c-10.08,0-17.28,7.68-19.44,18.48c-0.24,1.92-0.72,4.32-0.72,6.72v42.24h-14.16v-54.72H1046z M1134.8,546.96 c6.24-1.2,16.08-2.4,26.16-2.4c14.16,0,23.52,2.4,30.24,7.92c5.76,4.32,9.12,10.8,9.12,19.44c0,10.56-6.96,19.92-18.72,24.24v0.24 c10.56,2.64,22.8,11.28,22.8,27.6c0,9.6-3.84,16.8-9.36,22.08c-7.68,6.96-20.16,10.32-38.16,10.32c-9.84,0-17.28-0.72-22.08-1.2 V546.96z M1149.2,592.08h12.96c15.12,0,24-7.92,24-18.48c0-12.96-9.84-18-24.24-18c-6.48,0-10.32,0.48-12.72,0.96V592.08z M1149.2,645.12c2.88,0.48,6.96,0.72,12,0.72c14.64,0,28.32-5.52,28.32-21.36c0-15.12-12.96-21.36-28.56-21.36h-11.76V645.12z M1238,545.52v110.4h-14.16v-110.4H1238L1238,545.52z"></path> </g> </svg> 