<?xml version="1.0" encoding="UTF-8"?> <!-- Generator: Adobe Illustrator 23.0.0, SVG Export Plug-In . SVG Version: 6.00 Build 0) --> <svg xmlns="http://www.w3.org/2000/svg" xmlns:xlink="http://www.w3.org/1999/xlink" id="图层_1" x="0px" y="0px" viewBox="0 0 124.5 27.3" style="enable-background:new 0 0 124.5 27.3;" xml:space="preserve"> <style type="text/css"> .st0{fill:#E8762C;} .st1{fill:#C72035;} .st2{fill:#59879B;} .st3{fill:#5B6591;} .st4{fill:#EB912C;} .st5{fill-rule:evenodd;clip-rule:evenodd;fill:#1F447E;} .st6{fill:#7099A6;} .st7{fill:#1F447E;} </style> <polygon class="st0" points="18.5,12.8 15,12.8 15,9.1 13.7,9.1 13.7,12.8 10.2,12.8 10.2,14.2 13.7,14.2 13.7,18 15,18 15,14.2 18.5,14.2 "></polygon> <polygon class="st1" points="11.5,19 8.4,19 8.4,15.6 7.2,15.6 7.2,19 4.1,19 4.1,20.1 7.2,20.1 7.2,23.5 8.4,23.5 8.4,20.1 11.5,20.1 "></polygon> <polygon class="st2" points="24.6,6.9 21.5,6.9 21.5,3.5 20.3,3.5 20.3,6.9 17.2,6.9 17.2,7.9 20.3,7.9 20.3,11.3 21.5,11.3 21.5,7.9 24.6,7.9 "></polygon> <polygon class="st3" points="17,22.8 14.9,22.8 14.9,20.4 13.9,20.4 13.9,22.8 11.7,22.8 11.7,23.7 13.9,23.7 13.9,26.1 14.9,26.1 14.9,23.7 17,23.7 "></polygon> <polygon class="st4" points="11.5,6.9 8.3,6.9 8.3,3.5 7.2,3.5 7.2,6.9 4.1,6.9 4.1,7.9 7.2,7.9 7.2,11.3 8.3,11.3 8.3,7.9 11.5,7.9 "></polygon> <polygon class="st3" points="27,13.1 24.9,13.1 24.9,10.7 23.9,10.7 23.9,13.1 21.8,13.1 21.8,14 23.9,14 23.9,16.3 24.9,16.3 24.9,14 27,14 "></polygon> <polygon class="st5" points="24.6,19 21.5,19 21.5,15.6 20.3,15.6 20.3,19 17.2,19 17.2,20.1 20.3,20.1 20.3,23.5 21.5,23.5 21.5,20.1 24.6,20.1 "></polygon> <polygon class="st6" points="14,1.1 14,3.4 11.9,3.4 11.9,4.1 14,4.1 14,6.4 14.7,6.4 14.7,4.1 16.8,4.1 16.8,3.4 14.7,3.4 14.7,1.1 "></polygon> <polygon class="st6" points="3.8,10.9 3.8,13.2 1.7,13.2 1.7,13.9 3.8,13.9 3.8,16.2 4.5,16.2 4.5,13.9 6.6,13.9 6.6,13.2 4.5,13.2 4.5,10.9 "></polygon> <g> <path class="st5" d="M65.6,11.6c0.8-0.3,1.4-0.4,1.9-0.4c2.2,0,3.6,1.5,3.6,3.9c0,2.5-1.5,3.9-4.2,3.9c-0.9,0-1.9-0.2-2.8-0.5 l0-10.9h1.6V11.6z M67,17.6c1.5,0,2.4-0.9,2.4-2.4c0-1.5-0.9-2.4-2.2-2.4c-0.6,0-1.2,0.2-1.6,0.4v4.2C66.1,17.5,66.5,17.6,67,17.6"></path> <rect x="77.3" y="6.1" class="st5" width="1.6" height="14.3"></rect> <path class="st5" d="M87.2,14.3h3.7c0-1-0.6-1.5-1.5-1.5C88.4,12.7,87.5,13.3,87.2,14.3 M89,19.1c-2.5-0.2-3.7-2-3.6-4 c0.1-2.2,1.5-3.8,3.7-3.8c2.3,0,3.6,1.7,3.5,4.2h-5.5c0.1,1.4,1,2,2.1,2.1c1,0.1,2.3-0.1,3-0.6v1.5C91.2,19,90.2,19.2,89,19.1"></path> <path class="st5" d="M115.5,17.8c1,0,1.7-0.5,1.7-1.7v-4.7h1.6v4.9c0,1.7-1.3,2.7-3.3,2.7c-2,0-3.3-1-3.3-2.7v-4.9h1.6v4.7 C113.8,17.3,114.5,17.8,115.5,17.8"></path> <path class="st5" d="M53.3,19.1c-2.7,0-4.2-1.4-4.2-3.9c0-2.4,1.5-3.9,3.6-3.9c0.7,0,1.3,0.2,1.9,0.5v-0.5h1.6l0,7.3 C55.4,18.8,54.3,19.1,53.3,19.1 M53.1,17.6c0.4,0,0.8,0,1.4-0.2l0-4.1c-0.5-0.4-1-0.5-1.6-0.5c-1.4,0-2.2,0.9-2.2,2.4 C50.8,16.7,51.6,17.6,53.1,17.6"></path> <path class="st5" d="M103.1,19.1c-2.7,0-4.2-1.4-4.2-3.9c0-2.4,1.5-3.9,3.6-3.9c0.7,0,1.3,0.2,1.9,0.5v-0.5h1.6l0,7.3 C105.2,18.8,104.1,19.1,103.1,19.1 M102.9,17.6c0.3,0,0.8,0,1.4-0.2l0-4.1c-0.5-0.4-1-0.5-1.6-0.5c-1.4,0-2.2,0.9-2.2,2.4 C100.5,16.7,101.4,17.6,102.9,17.6"></path> <polygon class="st7" points="37.3,8.1 38.9,8.1 38.9,12.7 43.2,12.7 43.2,14.2 38.9,14.2 38.9,19.1 37.3,19.1 37.3,14.2 33,14.2 33,12.7 37.3,12.7 "></polygon> <path class="st7" d="M121.5,11.3c0.5,0,0.9,0.4,0.9,1c0,0.5-0.4,1-0.9,1c-0.5,0-1-0.4-1-1C120.6,11.8,121,11.3,121.5,11.3 L121.5,11.3z M121.5,11.5c-0.4,0-0.8,0.4-0.8,0.8c0,0.5,0.3,0.8,0.8,0.8c0.4,0,0.8-0.4,0.8-0.8C122.3,11.9,121.9,11.5,121.5,11.5 L121.5,11.5z M121.3,12.9h-0.2v-1.1c0.1,0,0.2,0,0.3,0c0.2,0,0.3,0,0.3,0.1c0.1,0,0.1,0.1,0.1,0.2c0,0.1-0.1,0.2-0.2,0.3v0 c0.1,0,0.2,0.1,0.2,0.3c0,0.2,0.1,0.2,0.1,0.3h-0.2c0,0-0.1-0.1-0.1-0.3c0-0.1-0.1-0.2-0.2-0.2h-0.1V12.9z M121.3,12.3h0.1 c0.1,0,0.3-0.1,0.3-0.2c0-0.1-0.1-0.2-0.3-0.2c-0.1,0-0.1,0-0.1,0V12.3z"></path> </g> </svg> 